<svg width="28" height="28" viewBox="0 0 28 28" fill="none" xmlns="http://www.w3.org/2000/svg">
<path fill-rule="evenodd" clip-rule="evenodd" d="M25.375 3.5H22.75V1.75H21V3.5H7V1.75H5.25V3.5H2.625L1.75 4.375V25.375L2.625 26.25H25.375L26.25 25.375V4.375L25.375 3.5ZM24.5 24.5H3.5V8.75H24.5V24.5ZM24.5 7H3.5V5.25H24.5V7ZM7 14H5.25V15.75H7V14ZM5.25 17.5H7V19.25H5.25V17.5ZM7 21H5.25V22.75H7V21ZM10.5 14H12.25V15.75H10.5V14ZM12.25 17.5H10.5V19.25H12.25V17.5ZM10.5 21H12.25V22.75H10.5V21ZM12.25 10.5H10.5V12.25H12.25V10.5ZM15.75 14H17.5V15.75H15.75V14ZM17.5 17.5H15.75V19.25H17.5V17.5ZM15.75 21H17.5V22.75H15.75V21ZM17.5 10.5H15.75V12.25H17.5V10.5ZM21 14H22.75V15.75H21V14ZM22.75 17.5H21V19.25H22.75V17.5ZM21 10.5H22.75V12.25H21V10.5Z" fill="#69706D"/>
</svg>
