<svg width="24" height="22" viewBox="0 0 24 22" fill="none" xmlns="http://www.w3.org/2000/svg">
<path fill-rule="evenodd" clip-rule="evenodd" d="M16.53 5.02661V7.10661L18.03 5.78661V3.33328L17.28 2.66661H3.78003L3.03003 3.33328V3.98126L3 3.99998V17.72L3.54 18.3333L11.04 20.6267L12 20V18.6665H17.28L18.03 17.9999V17.3332V15.5865L16.53 14.2532V17.3332H12V6.27998L11.505 5.66665L6.05429 3.99994H10.53H16.53V5.02661ZM10.5 19.04L4.5 17.2533V4.95998L10.5 6.74665V19.04ZM20.28 11.3067H12.825V9.97335H20.22L17.82 7.84002L18.885 6.90668L22.59 10.1867V11.1333L18.855 14.44L17.805 13.5067L20.28 11.3067Z" fill="#424242"/>
</svg>
