<svg width="2" height="8" viewBox="0 0 2 8" fill="none" xmlns="http://www.w3.org/2000/svg">
<path d="M0.999878 2C1.54988 2 1.99988 1.55 1.99988 1C1.99988 0.45 1.54988 0 0.999878 0C0.449878 0 -0.00012207 0.45 -0.00012207 1C-0.00012207 1.55 0.449878 2 0.999878 2ZM0.999878 3C0.449878 3 -0.00012207 3.45 -0.00012207 4C-0.00012207 4.55 0.449878 5 0.999878 5C1.54988 5 1.99988 4.55 1.99988 4C1.99988 3.45 1.54988 3 0.999878 3ZM0.999878 6C0.449878 6 -0.00012207 6.45 -0.00012207 7C-0.00012207 7.55 0.449878 8 0.999878 8C1.54988 8 1.99988 7.55 1.99988 7C1.99988 6.45 1.54988 6 0.999878 6Z" fill="white"/>
</svg>
