<?xml version="1.0" encoding="utf-8"?>
<!-- Generator: Adobe Illustrator 22.0.0, SVG Export Plug-In . SVG Version: 6.00 Build 0)  -->
<svg version="1.1" id="Слой_1" xmlns="http://www.w3.org/2000/svg" xmlns:xlink="http://www.w3.org/1999/xlink" x="0px" y="0px"
	 viewBox="0 0 29.3 27.9" style="enable-background:new 0 0 29.3 27.9;" xml:space="preserve">
<style type="text/css">
	.st0{fill:#FFDB4D;}
</style>
<path class="st0" d="M14.2,0.3c0.2-0.4,0.7-0.4,0.9,0l4.1,8.4c0.1,0.1,0.2,0.2,0.4,0.3l9.3,1.3c0.4,0.1,0.6,0.6,0.3,0.9l-6.7,6.5
	c-0.1,0.1-0.2,0.3-0.1,0.4l1.6,9.2c0.1,0.4-0.4,0.7-0.7,0.5l-8.3-4.4c-0.1-0.1-0.3-0.1-0.5,0l-8.3,4.4c-0.4,0.2-0.8-0.1-0.7-0.5
	L7,18.1c0-0.2,0-0.3-0.1-0.4l-6.7-6.5c-0.3-0.3-0.1-0.8,0.3-0.9l9.3-1.3c0.2,0,0.3-0.1,0.4-0.3L14.2,0.3z"/>
</svg>
