<svg width="32" height="32" viewBox="0 0 32 32" fill="none" xmlns="http://www.w3.org/2000/svg">
<path d="M16 16V4" stroke="#383741" stroke-width="2" stroke-linecap="round" stroke-linejoin="round"/>
<path d="M26.392 10L5.60742 22" stroke="#383741" stroke-width="2" stroke-linecap="round" stroke-linejoin="round"/>
<path d="M4.20011 18.1938C3.68055 15.3821 4.18043 12.4772 5.60999 10.0009C7.03954 7.5246 9.30511 5.63905 11.9998 4.68289V13.6907L4.20011 18.1938Z" stroke="#383741" stroke-width="2" stroke-linecap="round" stroke-linejoin="round"/>
<path d="M16.0003 4C18.1027 4.00039 20.1681 4.55313 21.9897 5.60288C23.8113 6.65263 25.3251 8.16254 26.3796 9.9814C27.4341 11.8003 27.9922 13.8643 27.998 15.9667C28.0038 18.0691 27.4572 20.1361 26.4129 21.9608C25.3685 23.7855 23.8631 25.3038 22.0474 26.3637C20.2316 27.4235 18.1693 27.9877 16.0669 27.9998C13.9645 28.0119 11.8959 27.4714 10.0681 26.4324C8.24032 25.3935 6.71757 23.8926 5.65234 22.08" stroke="#383741" stroke-width="2" stroke-linecap="round" stroke-linejoin="round"/>
</svg>
