<svg width="32" height="32" viewBox="0 0 32 32" fill="none" xmlns="http://www.w3.org/2000/svg">
<path d="M11 20C14.5899 20 17.5 17.0899 17.5 13.5C17.5 9.91015 14.5899 7 11 7C7.41015 7 4.5 9.91015 4.5 13.5C4.5 17.0899 7.41015 20 11 20Z" stroke="#383741" stroke-width="2" stroke-linecap="round" stroke-linejoin="round"/>
<path d="M19.4268 7.24212C20.3208 6.99023 21.2584 6.93284 22.1765 7.07383C23.0945 7.21483 23.9717 7.55092 24.749 8.05947C25.5262 8.56802 26.1855 9.23723 26.6823 10.022C27.1791 10.8068 27.502 11.6889 27.6292 12.609C27.7564 13.5291 27.685 14.4658 27.4197 15.3559C27.1544 16.2461 26.7014 17.069 26.0913 17.7694C25.4812 18.4697 24.7281 19.0312 23.8827 19.416C23.0373 19.8007 22.1193 19.9999 21.1905 20" stroke="#383741" stroke-width="2" stroke-linecap="round" stroke-linejoin="round"/>
<path d="M2 24.6746C3.01517 23.2306 4.36287 22.052 5.92931 21.2384C7.49576 20.4248 9.23497 20.0001 11.0001 20C12.7652 19.9999 14.5045 20.4246 16.071 21.238C17.6375 22.0515 18.9853 23.23 20.0006 24.6739" stroke="#383741" stroke-width="2" stroke-linecap="round" stroke-linejoin="round"/>
<path d="M21.1904 20C22.9557 19.9987 24.6953 20.4228 26.262 21.2364C27.8286 22.05 29.1761 23.2291 30.1905 24.6739" stroke="#383741" stroke-width="2" stroke-linecap="round" stroke-linejoin="round"/>
</svg>
