<svg width="32" height="32" viewBox="0 0 32 32" fill="none" xmlns="http://www.w3.org/2000/svg">
<path d="M14.9989 13.3024L11.7489 7.67324C11.4181 7.09907 11.3287 6.41703 11.5005 5.777C11.6723 5.13697 12.0911 4.59133 12.665 4.25999C13.2389 3.92865 13.9209 3.83872 14.5611 4.00997C15.2013 4.18122 15.7472 4.59963 16.0791 5.17324L21.0791 13.8335" stroke="#383741" stroke-width="2" stroke-linecap="round" stroke-linejoin="round"/>
<path d="M11.169 16.6684L6.41899 8.44117C6.25451 8.15684 6.14768 7.84288 6.1046 7.51723C6.06152 7.19159 6.08304 6.86065 6.16792 6.54332C6.25281 6.226 6.39939 5.92852 6.59931 5.66787C6.79922 5.40723 7.04853 5.18854 7.33301 5.0243C7.61748 4.86006 7.93153 4.75349 8.25721 4.71068C8.58289 4.66787 8.91381 4.68967 9.23106 4.77482C9.54832 4.85997 9.84568 5.0068 10.1062 5.20693C10.3666 5.40706 10.5851 5.65656 10.7491 5.94117L14.9991 13.3024" stroke="#383741" stroke-width="2" stroke-linecap="round" stroke-linejoin="round"/>
<path d="M19.249 20.6636C18.586 19.5152 18.4063 18.1504 18.7495 16.8695C19.0928 15.5886 19.9307 14.4965 21.0792 13.8335L19.8292 11.6684C19.6647 11.3841 19.5579 11.0701 19.5148 10.7445C19.4717 10.4189 19.4932 10.0879 19.5781 9.77059C19.663 9.45327 19.8096 9.15578 20.0095 8.89514C20.2094 8.63449 20.4587 8.4158 20.7432 8.25156C21.0277 8.08732 21.3417 7.98075 21.6674 7.93795C21.9931 7.89514 22.324 7.91693 22.6412 8.00208C22.9585 8.08723 23.2559 8.23407 23.5163 8.4342C23.7768 8.63433 23.9953 8.88383 24.1593 9.16844L26.6593 13.4986C27.3162 14.6359 27.7427 15.8914 27.9144 17.1936C28.086 18.4957 27.9995 19.8189 27.6597 21.0876C27.3199 22.3563 26.7335 23.5456 25.934 24.5877C25.1345 25.6297 24.1376 26.504 23.0002 27.1607C21.8627 27.8175 20.607 28.2437 19.3049 28.415C18.0027 28.5864 16.6795 28.4995 15.4109 28.1595C14.1423 27.8194 12.9531 27.2327 11.9112 26.433C10.8693 25.6333 9.99523 24.6362 9.33878 23.4986L4.58878 15.2713C4.25792 14.6971 4.16856 14.0151 4.34035 13.3751C4.51213 12.735 4.93099 12.1894 5.50489 11.8581C6.07879 11.5267 6.76076 11.4368 7.40093 11.608C8.0411 11.7793 8.58709 12.1977 8.91891 12.7713L11.1689 16.6684" stroke="#383741" stroke-width="2" stroke-linecap="round" stroke-linejoin="round"/>
<path d="M10.1368 30.0003C8.44183 28.8243 7.02895 27.2869 6 25.4988" stroke="#383741" stroke-width="2" stroke-linecap="round" stroke-linejoin="round"/>
<path d="M22 3.875C23.141 3.87485 24.2618 4.17519 25.2498 4.74581C26.2379 5.31643 27.0582 6.1372 27.6282 7.12554" stroke="#383741" stroke-width="2" stroke-linecap="round" stroke-linejoin="round"/>
</svg>
