<svg width="32" height="32" viewBox="0 0 32 32" fill="none" xmlns="http://www.w3.org/2000/svg">
<path d="M4.77266 6.05992L12.0494 25.4646C12.1212 25.656 12.2499 25.8208 12.4182 25.9369C12.5865 26.0529 12.7863 26.1145 12.9907 26.1135C13.1952 26.1125 13.3944 26.0488 13.5615 25.9312C13.7286 25.8135 13.8557 25.6474 13.9255 25.4553L16.8407 17.4386C16.8906 17.3012 16.9701 17.1765 17.0734 17.0732C17.1767 16.9699 17.3014 16.8905 17.4387 16.8405L25.4554 13.9254C25.6475 13.8555 25.8136 13.7285 25.9313 13.5613C26.049 13.3942 26.1127 13.195 26.1137 12.9906C26.1147 12.7862 26.0531 12.5863 25.937 12.418C25.821 12.2497 25.6562 12.121 25.4648 12.0492L6.06011 4.77247C5.88033 4.70505 5.68494 4.69082 5.49728 4.73147C5.30963 4.77211 5.13765 4.86593 5.00188 5.00169C4.86611 5.13746 4.7723 5.30945 4.73165 5.4971C4.691 5.68476 4.70524 5.88014 4.77266 6.05992Z" stroke="#383741" stroke-width="2" stroke-linecap="round" stroke-linejoin="round"/>
<path d="M17.0742 17.0732L26.001 26" stroke="#383741" stroke-width="2" stroke-linecap="round" stroke-linejoin="round"/>
</svg>
