<?xml version="1.0" encoding="utf-8"?>
<!-- Generator: Adobe Illustrator 22.0.0, SVG Export Plug-In . SVG Version: 6.00 Build 0)  -->
<svg version="1.1" id="Слой_1" xmlns="http://www.w3.org/2000/svg" xmlns:xlink="http://www.w3.org/1999/xlink" x="0px" y="0px"
	 viewBox="0 0 29.1 27.4" style="enable-background:new 0 0 29.1 27.4;" xml:space="preserve">
<style type="text/css">
	.st0{fill:none;stroke:#FFDB4D;stroke-width:1.5;stroke-linejoin:round;}
</style>
<path class="st0" d="M10.4,8.7l3.9-7.9l3.9,7.9c0.2,0.4,0.5,0.6,0.9,0.7l8.8,1.3l-6.3,6.2c-0.3,0.3-0.4,0.7-0.4,1.1l1.5,8.7
	l-7.8-4.1c-0.4-0.2-0.8-0.2-1.2,0l-7.8,4.1l1.5-8.7c0.1-0.4-0.1-0.8-0.4-1.1l-6.3-6.2l8.8-1.3C9.9,9.3,10.3,9,10.4,8.7z M28.3,10.3
	L28.3,10.3L28.3,10.3z"/>
</svg>
