<svg width="41" height="41" viewBox="0 0 41 41" fill="none" xmlns="http://www.w3.org/2000/svg">
<path d="M28.875 25.5H27.0975L26.4675 24.8925C28.6725 22.3275 30 18.9975 30 15.375C30 7.2975 23.4525 0.75 15.375 0.75C7.2975 0.75 0.75 7.2975 0.75 15.375C0.75 23.4525 7.2975 30 15.375 30C18.9975 30 22.3275 28.6725 24.8925 26.4675L25.5 27.0975V28.875L36.75 40.1025L40.1025 36.75L28.875 25.5ZM15.375 25.5C9.7725 25.5 5.25 20.9775 5.25 15.375C5.25 9.7725 9.7725 5.25 15.375 5.25C20.9775 5.25 25.5 9.7725 25.5 15.375C25.5 20.9775 20.9775 25.5 15.375 25.5Z" fill="white"/>
</svg>
