<svg width="12" height="16" viewBox="0 0 12 16" fill="none" xmlns="http://www.w3.org/2000/svg">
<path d="M6.00008 15.5C4.94753 14.6022 3.9719 13.6179 3.08342 12.5575C1.75008 10.965 0.166749 8.59331 0.166749 6.33331C0.165567 3.97294 1.58695 1.84447 3.76764 0.941145C5.94832 0.0378178 8.45847 0.537681 10.1267 2.20748C11.2238 3.29965 11.8383 4.7853 11.8334 6.33331C11.8334 8.59331 10.2501 10.965 8.91675 12.5575C8.02826 13.6179 7.05264 14.6022 6.00008 15.5ZM6.00008 3.83331C5.10692 3.83331 4.2816 4.30981 3.83502 5.08331C3.38844 5.85682 3.38844 6.80981 3.83502 7.58331C4.2816 8.35682 5.10692 8.83331 6.00008 8.83331C7.38079 8.83331 8.50008 7.71403 8.50008 6.33331C8.50008 4.9526 7.38079 3.83331 6.00008 3.83331Z" fill="#383741"/>
</svg>
