<svg width="23" height="22" viewBox="0 0 23 22" fill="none" xmlns="http://www.w3.org/2000/svg">
<path d="M11.0516 0.908494C11.235 0.536871 11.765 0.53687 11.9484 0.908493L14.9104 6.91018C14.9832 7.05775 15.124 7.16003 15.2868 7.1837L21.9101 8.14611C22.3202 8.2057 22.484 8.70969 22.1872 8.99896L17.3946 13.6706C17.2767 13.7855 17.223 13.951 17.2508 14.1132L18.3822 20.7097C18.4522 21.1181 18.0235 21.4296 17.6567 21.2368L11.7327 18.1223C11.587 18.0457 11.413 18.0457 11.2673 18.1223L5.34331 21.2368C4.9765 21.4296 4.54778 21.1181 4.61784 20.7097L5.74923 14.1132C5.77704 13.951 5.72327 13.7855 5.60543 13.6706L0.812798 8.99896C0.516039 8.70969 0.679793 8.2057 1.0899 8.14611L7.71315 7.1837C7.87601 7.16003 8.01679 7.05775 8.08962 6.91018L11.0516 0.908494Z" fill="#707683"/>
</svg>
