<svg width="977" height="392" viewBox="0 0 977 392" fill="none" xmlns="http://www.w3.org/2000/svg">
<g clip-path="url(#clip0)">
<rect width="977" height="392" fill="#FAFAFB"/>
<path d="M103.592 131.709H99.9055V135.583H99.2384V131.709H95.5607V131.084H99.2384V127.227H99.9055V131.084H103.592V131.709ZM105.868 128.159C105.942 127.64 106.085 127.179 106.296 126.774C106.507 126.369 106.775 126.027 107.1 125.747C107.425 125.468 107.801 125.257 108.229 125.114C108.656 124.966 109.118 124.892 109.614 124.892C110.076 124.892 110.512 124.958 110.923 125.089C111.333 125.214 111.692 125.405 112 125.662C112.314 125.918 112.559 126.238 112.736 126.62C112.918 127.002 113.01 127.444 113.01 127.945C113.01 128.339 112.95 128.695 112.83 129.015C112.71 129.328 112.542 129.605 112.325 129.844C112.114 130.084 111.864 130.286 111.573 130.451C111.282 130.611 110.965 130.734 110.623 130.819C111.513 130.984 112.183 131.329 112.633 131.854C113.089 132.373 113.317 133.023 113.317 133.804C113.317 134.3 113.218 134.762 113.018 135.19C112.819 135.612 112.545 135.976 112.197 136.284C111.849 136.592 111.439 136.835 110.965 137.011C110.492 137.182 109.979 137.268 109.426 137.268C108.736 137.268 108.16 137.177 107.698 136.994C107.242 136.806 106.866 136.564 106.569 136.267C106.273 135.971 106.042 135.64 105.877 135.275C105.711 134.904 105.577 134.537 105.475 134.172L105.8 134.035C105.891 133.995 105.985 133.984 106.082 134.001C106.185 134.018 106.259 134.083 106.304 134.197C106.333 134.266 106.37 134.374 106.415 134.522C106.467 134.665 106.538 134.825 106.629 135.001C106.72 135.178 106.837 135.361 106.98 135.549C107.128 135.731 107.311 135.899 107.527 136.053C107.75 136.207 108.015 136.333 108.323 136.43C108.631 136.527 108.995 136.575 109.417 136.575C109.931 136.575 110.378 136.49 110.76 136.319C111.148 136.147 111.47 135.931 111.727 135.669C111.989 135.401 112.183 135.104 112.308 134.779C112.439 134.448 112.505 134.129 112.505 133.821C112.505 133.451 112.445 133.106 112.325 132.786C112.211 132.467 112.017 132.193 111.744 131.965C111.47 131.731 111.108 131.549 110.658 131.418C110.213 131.281 109.663 131.213 109.007 131.213V130.622C109.531 130.611 109.993 130.543 110.392 130.417C110.792 130.286 111.125 130.109 111.393 129.887C111.661 129.665 111.864 129.399 112 129.091C112.137 128.784 112.206 128.444 112.206 128.074C112.206 127.646 112.134 127.275 111.992 126.962C111.849 126.648 111.658 126.389 111.419 126.184C111.179 125.978 110.9 125.827 110.581 125.73C110.261 125.633 109.928 125.585 109.58 125.585C109.198 125.585 108.844 125.645 108.519 125.764C108.194 125.879 107.906 126.041 107.656 126.252C107.41 126.457 107.205 126.705 107.04 126.996C106.874 127.281 106.76 127.595 106.698 127.937C106.663 128.062 106.615 128.145 106.552 128.185C106.49 128.225 106.401 128.239 106.287 128.228L105.868 128.159ZM115.688 139.167C115.659 139.144 115.639 139.121 115.628 139.098C115.622 139.075 115.619 139.05 115.619 139.021C115.619 138.987 115.642 138.941 115.688 138.884C115.739 138.827 115.808 138.742 115.893 138.628C115.984 138.519 116.076 138.388 116.167 138.234C116.264 138.086 116.349 137.918 116.423 137.73C116.503 137.542 116.555 137.339 116.577 137.122C116.492 137.151 116.403 137.165 116.312 137.165C116.101 137.165 115.927 137.094 115.791 136.951C115.659 136.809 115.594 136.626 115.594 136.404C115.594 136.204 115.662 136.033 115.799 135.891C115.936 135.748 116.116 135.677 116.338 135.677C116.583 135.677 116.771 135.763 116.902 135.934C117.039 136.099 117.108 136.319 117.108 136.592C117.108 136.826 117.076 137.063 117.014 137.302C116.957 137.547 116.871 137.787 116.757 138.021C116.643 138.254 116.506 138.48 116.346 138.696C116.187 138.913 116.01 139.112 115.816 139.295L115.688 139.167ZM123.159 136.618C123.621 136.618 124.04 136.555 124.416 136.43C124.798 136.299 125.126 136.116 125.4 135.882C125.673 135.643 125.884 135.358 126.032 135.027C126.181 134.696 126.255 134.329 126.255 133.924C126.255 133.394 126.158 132.952 125.964 132.598C125.77 132.245 125.522 131.962 125.22 131.751C124.918 131.54 124.584 131.392 124.219 131.307C123.854 131.215 123.501 131.17 123.159 131.17C122.817 131.17 122.463 131.215 122.098 131.307C121.733 131.392 121.4 131.54 121.098 131.751C120.795 131.962 120.547 132.245 120.353 132.598C120.16 132.952 120.063 133.394 120.063 133.924C120.063 134.329 120.137 134.696 120.285 135.027C120.433 135.358 120.641 135.643 120.909 135.882C121.183 136.116 121.511 136.299 121.893 136.43C122.275 136.555 122.697 136.618 123.159 136.618ZM120.456 127.988C120.456 128.313 120.507 128.627 120.61 128.929C120.718 129.231 120.884 129.502 121.106 129.741C121.328 129.975 121.608 130.163 121.944 130.306C122.286 130.443 122.691 130.511 123.159 130.511C123.621 130.511 124.02 130.443 124.356 130.306C124.698 130.163 124.98 129.975 125.203 129.741C125.425 129.502 125.588 129.231 125.69 128.929C125.799 128.627 125.853 128.313 125.853 127.988C125.853 127.64 125.793 127.318 125.673 127.022C125.553 126.72 125.377 126.457 125.143 126.235C124.915 126.012 124.633 125.839 124.296 125.713C123.966 125.588 123.586 125.525 123.159 125.525C122.731 125.525 122.349 125.588 122.013 125.713C121.676 125.839 121.391 126.012 121.157 126.235C120.929 126.457 120.755 126.72 120.636 127.022C120.516 127.318 120.456 127.64 120.456 127.988ZM124.45 130.811C124.838 130.896 125.191 131.024 125.511 131.195C125.836 131.367 126.115 131.58 126.349 131.837C126.583 132.093 126.765 132.396 126.896 132.743C127.027 133.091 127.093 133.488 127.093 133.932C127.093 134.445 126.996 134.907 126.802 135.318C126.608 135.728 126.337 136.079 125.99 136.37C125.648 136.661 125.234 136.883 124.75 137.037C124.271 137.191 123.74 137.268 123.159 137.268C122.577 137.268 122.044 137.191 121.559 137.037C121.08 136.883 120.667 136.661 120.319 136.37C119.977 136.079 119.709 135.728 119.515 135.318C119.321 134.907 119.224 134.445 119.224 133.932C119.224 133.488 119.29 133.091 119.421 132.743C119.552 132.396 119.732 132.093 119.96 131.837C120.194 131.58 120.47 131.367 120.79 131.195C121.115 131.024 121.471 130.896 121.859 130.811C121.505 130.708 121.192 130.568 120.918 130.391C120.644 130.215 120.413 130.004 120.225 129.759C120.043 129.513 119.903 129.243 119.806 128.946C119.709 128.644 119.661 128.322 119.661 127.98C119.661 127.552 119.74 127.15 119.9 126.774C120.065 126.397 120.299 126.07 120.601 125.79C120.904 125.511 121.269 125.291 121.696 125.132C122.13 124.972 122.617 124.892 123.159 124.892C123.695 124.892 124.176 124.972 124.604 125.132C125.037 125.291 125.405 125.511 125.707 125.79C126.015 126.07 126.249 126.397 126.409 126.774C126.574 127.15 126.657 127.552 126.657 127.98C126.657 128.322 126.608 128.644 126.511 128.946C126.414 129.243 126.272 129.513 126.084 129.759C125.896 129.998 125.665 130.209 125.391 130.391C125.117 130.568 124.804 130.708 124.45 130.811ZM134.065 127.937C134.065 128.433 133.996 128.872 133.86 129.254C133.723 129.63 133.537 129.944 133.304 130.195C133.07 130.446 132.799 130.637 132.491 130.768C132.183 130.893 131.858 130.956 131.516 130.956C131.163 130.956 130.829 130.893 130.515 130.768C130.208 130.637 129.94 130.446 129.711 130.195C129.483 129.944 129.304 129.63 129.173 129.254C129.041 128.872 128.976 128.433 128.976 127.937C128.976 127.435 129.041 126.993 129.173 126.611C129.304 126.229 129.483 125.913 129.711 125.662C129.94 125.405 130.208 125.214 130.515 125.089C130.829 124.958 131.163 124.892 131.516 124.892C131.87 124.892 132.2 124.958 132.508 125.089C132.816 125.214 133.084 125.405 133.312 125.662C133.546 125.913 133.728 126.229 133.86 126.611C133.996 126.993 134.065 127.435 134.065 127.937ZM133.415 127.937C133.415 127.498 133.363 127.121 133.261 126.808C133.164 126.494 133.027 126.238 132.85 126.038C132.679 125.833 132.477 125.685 132.243 125.593C132.015 125.496 131.773 125.448 131.516 125.448C131.259 125.448 131.017 125.496 130.789 125.593C130.561 125.685 130.361 125.833 130.19 126.038C130.019 126.238 129.883 126.494 129.78 126.808C129.683 127.121 129.634 127.498 129.634 127.937C129.634 128.376 129.683 128.752 129.78 129.066C129.883 129.374 130.019 129.627 130.19 129.827C130.361 130.027 130.561 130.175 130.789 130.272C131.017 130.363 131.259 130.409 131.516 130.409C131.773 130.409 132.015 130.363 132.243 130.272C132.477 130.175 132.679 130.027 132.85 129.827C133.027 129.627 133.164 129.374 133.261 129.066C133.363 128.752 133.415 128.376 133.415 127.937ZM138.658 125.183C138.692 125.137 138.732 125.1 138.777 125.072C138.829 125.043 138.894 125.029 138.974 125.029H139.547L130.858 136.977C130.783 137.08 130.684 137.131 130.558 137.131H129.977L138.658 125.183ZM140.599 134.257C140.599 134.753 140.531 135.192 140.394 135.574C140.257 135.951 140.072 136.264 139.838 136.515C139.61 136.766 139.342 136.957 139.034 137.088C138.726 137.214 138.401 137.276 138.059 137.276C137.705 137.276 137.372 137.214 137.058 137.088C136.75 136.957 136.482 136.766 136.254 136.515C136.026 136.264 135.847 135.951 135.715 135.574C135.584 135.192 135.519 134.753 135.519 134.257C135.519 133.756 135.584 133.314 135.715 132.932C135.847 132.55 136.026 132.233 136.254 131.982C136.482 131.726 136.75 131.535 137.058 131.409C137.372 131.278 137.705 131.213 138.059 131.213C138.412 131.213 138.743 131.278 139.051 131.409C139.359 131.535 139.627 131.726 139.855 131.982C140.089 132.233 140.271 132.55 140.402 132.932C140.534 133.314 140.599 133.756 140.599 134.257ZM139.949 134.257C139.949 133.818 139.898 133.442 139.795 133.128C139.698 132.809 139.564 132.55 139.393 132.35C139.222 132.145 139.02 131.997 138.786 131.905C138.558 131.808 138.315 131.76 138.059 131.76C137.802 131.76 137.557 131.808 137.323 131.905C137.095 131.997 136.896 132.145 136.725 132.35C136.554 132.55 136.417 132.809 136.314 133.128C136.217 133.442 136.169 133.818 136.169 134.257C136.169 134.696 136.217 135.073 136.314 135.386C136.417 135.694 136.554 135.948 136.725 136.147C136.896 136.347 137.095 136.492 137.323 136.584C137.557 136.675 137.802 136.721 138.059 136.721C138.315 136.721 138.558 136.675 138.786 136.584C139.02 136.492 139.222 136.347 139.393 136.147C139.564 135.948 139.698 135.694 139.795 135.386C139.898 135.073 139.949 134.696 139.949 134.257Z" fill="#333333"/>
<path d="M103.592 192.575H99.9055V196.449H99.2384V192.575H95.5607V191.95H99.2384V188.093H99.9055V191.95H103.592V192.575ZM113.831 191.942C113.831 193.002 113.717 193.92 113.489 194.696C113.26 195.471 112.95 196.112 112.556 196.62C112.163 197.127 111.701 197.507 111.171 197.757C110.646 198.003 110.085 198.125 109.486 198.125C108.887 198.125 108.326 198.003 107.801 197.757C107.276 197.507 106.817 197.127 106.424 196.62C106.031 196.112 105.72 195.471 105.492 194.696C105.269 193.92 105.158 193.002 105.158 191.942C105.158 190.881 105.269 189.963 105.492 189.188C105.72 188.412 106.031 187.771 106.424 187.263C106.817 186.756 107.276 186.379 107.801 186.134C108.326 185.883 108.887 185.758 109.486 185.758C110.085 185.758 110.646 185.883 111.171 186.134C111.701 186.379 112.163 186.756 112.556 187.263C112.95 187.771 113.26 188.412 113.489 189.188C113.717 189.963 113.831 190.881 113.831 191.942ZM112.975 191.942C112.975 190.961 112.881 190.123 112.693 189.427C112.505 188.731 112.251 188.164 111.932 187.725C111.618 187.28 111.248 186.955 110.82 186.75C110.398 186.545 109.953 186.442 109.486 186.442C109.018 186.442 108.574 186.545 108.152 186.75C107.73 186.955 107.359 187.28 107.04 187.725C106.72 188.164 106.467 188.731 106.279 189.427C106.09 190.123 105.996 190.961 105.996 191.942C105.996 192.928 106.09 193.769 106.279 194.465C106.467 195.155 106.72 195.722 107.04 196.167C107.359 196.606 107.73 196.928 108.152 197.133C108.574 197.333 109.018 197.432 109.486 197.432C109.953 197.432 110.398 197.333 110.82 197.133C111.248 196.928 111.618 196.606 111.932 196.167C112.251 195.722 112.505 195.155 112.693 194.465C112.881 193.769 112.975 192.928 112.975 191.942ZM115.688 200.032C115.659 200.01 115.639 199.987 115.628 199.964C115.622 199.941 115.619 199.916 115.619 199.887C115.619 199.853 115.642 199.807 115.688 199.75C115.739 199.693 115.808 199.608 115.893 199.494C115.984 199.385 116.076 199.254 116.167 199.1C116.264 198.952 116.349 198.784 116.423 198.596C116.503 198.407 116.555 198.205 116.577 197.988C116.492 198.017 116.403 198.031 116.312 198.031C116.101 198.031 115.927 197.96 115.791 197.817C115.659 197.675 115.594 197.492 115.594 197.27C115.594 197.07 115.662 196.899 115.799 196.757C115.936 196.614 116.116 196.543 116.338 196.543C116.583 196.543 116.771 196.629 116.902 196.8C117.039 196.965 117.108 197.184 117.108 197.458C117.108 197.692 117.076 197.929 117.014 198.168C116.957 198.413 116.871 198.653 116.757 198.886C116.643 199.12 116.506 199.345 116.346 199.562C116.187 199.779 116.01 199.978 115.816 200.161L115.688 200.032ZM123.159 197.484C123.621 197.484 124.04 197.421 124.416 197.296C124.798 197.164 125.126 196.982 125.4 196.748C125.673 196.509 125.884 196.224 126.032 195.893C126.181 195.562 126.255 195.195 126.255 194.79C126.255 194.259 126.158 193.818 125.964 193.464C125.77 193.11 125.522 192.828 125.22 192.617C124.918 192.406 124.584 192.258 124.219 192.173C123.854 192.081 123.501 192.036 123.159 192.036C122.817 192.036 122.463 192.081 122.098 192.173C121.733 192.258 121.4 192.406 121.098 192.617C120.795 192.828 120.547 193.11 120.353 193.464C120.16 193.818 120.063 194.259 120.063 194.79C120.063 195.195 120.137 195.562 120.285 195.893C120.433 196.224 120.641 196.509 120.909 196.748C121.183 196.982 121.511 197.164 121.893 197.296C122.275 197.421 122.697 197.484 123.159 197.484ZM120.456 188.854C120.456 189.179 120.507 189.493 120.61 189.795C120.718 190.097 120.884 190.368 121.106 190.607C121.328 190.841 121.608 191.029 121.944 191.172C122.286 191.309 122.691 191.377 123.159 191.377C123.621 191.377 124.02 191.309 124.356 191.172C124.698 191.029 124.98 190.841 125.203 190.607C125.425 190.368 125.588 190.097 125.69 189.795C125.799 189.493 125.853 189.179 125.853 188.854C125.853 188.506 125.793 188.184 125.673 187.888C125.553 187.585 125.377 187.323 125.143 187.101C124.915 186.878 124.633 186.704 124.296 186.579C123.966 186.454 123.586 186.391 123.159 186.391C122.731 186.391 122.349 186.454 122.013 186.579C121.676 186.704 121.391 186.878 121.157 187.101C120.929 187.323 120.755 187.585 120.636 187.888C120.516 188.184 120.456 188.506 120.456 188.854ZM124.45 191.676C124.838 191.762 125.191 191.89 125.511 192.061C125.836 192.232 126.115 192.446 126.349 192.703C126.583 192.959 126.765 193.262 126.896 193.609C127.027 193.957 127.093 194.353 127.093 194.798C127.093 195.311 126.996 195.773 126.802 196.184C126.608 196.594 126.337 196.945 125.99 197.236C125.648 197.527 125.234 197.749 124.75 197.903C124.271 198.057 123.74 198.134 123.159 198.134C122.577 198.134 122.044 198.057 121.559 197.903C121.08 197.749 120.667 197.527 120.319 197.236C119.977 196.945 119.709 196.594 119.515 196.184C119.321 195.773 119.224 195.311 119.224 194.798C119.224 194.353 119.29 193.957 119.421 193.609C119.552 193.262 119.732 192.959 119.96 192.703C120.194 192.446 120.47 192.232 120.79 192.061C121.115 191.89 121.471 191.762 121.859 191.676C121.505 191.574 121.192 191.434 120.918 191.257C120.644 191.081 120.413 190.87 120.225 190.624C120.043 190.379 119.903 190.108 119.806 189.812C119.709 189.51 119.661 189.188 119.661 188.846C119.661 188.418 119.74 188.016 119.9 187.64C120.065 187.263 120.299 186.935 120.601 186.656C120.904 186.377 121.269 186.157 121.696 185.997C122.13 185.838 122.617 185.758 123.159 185.758C123.695 185.758 124.176 185.838 124.604 185.997C125.037 186.157 125.405 186.377 125.707 186.656C126.015 186.935 126.249 187.263 126.409 187.64C126.574 188.016 126.657 188.418 126.657 188.846C126.657 189.188 126.608 189.51 126.511 189.812C126.414 190.108 126.272 190.379 126.084 190.624C125.896 190.864 125.665 191.075 125.391 191.257C125.117 191.434 124.804 191.574 124.45 191.676ZM134.065 188.803C134.065 189.299 133.996 189.738 133.86 190.12C133.723 190.496 133.537 190.81 133.304 191.061C133.07 191.312 132.799 191.503 132.491 191.634C132.183 191.759 131.858 191.822 131.516 191.822C131.163 191.822 130.829 191.759 130.515 191.634C130.208 191.503 129.94 191.312 129.711 191.061C129.483 190.81 129.304 190.496 129.173 190.12C129.041 189.738 128.976 189.299 128.976 188.803C128.976 188.301 129.041 187.859 129.173 187.477C129.304 187.095 129.483 186.779 129.711 186.528C129.94 186.271 130.208 186.08 130.515 185.955C130.829 185.824 131.163 185.758 131.516 185.758C131.87 185.758 132.2 185.824 132.508 185.955C132.816 186.08 133.084 186.271 133.312 186.528C133.546 186.779 133.728 187.095 133.86 187.477C133.996 187.859 134.065 188.301 134.065 188.803ZM133.415 188.803C133.415 188.364 133.363 187.987 133.261 187.674C133.164 187.36 133.027 187.104 132.85 186.904C132.679 186.699 132.477 186.551 132.243 186.459C132.015 186.362 131.773 186.314 131.516 186.314C131.259 186.314 131.017 186.362 130.789 186.459C130.561 186.551 130.361 186.699 130.19 186.904C130.019 187.104 129.883 187.36 129.78 187.674C129.683 187.987 129.634 188.364 129.634 188.803C129.634 189.242 129.683 189.618 129.78 189.932C129.883 190.24 130.019 190.493 130.19 190.693C130.361 190.892 130.561 191.041 130.789 191.138C131.017 191.229 131.259 191.275 131.516 191.275C131.773 191.275 132.015 191.229 132.243 191.138C132.477 191.041 132.679 190.892 132.85 190.693C133.027 190.493 133.164 190.24 133.261 189.932C133.363 189.618 133.415 189.242 133.415 188.803ZM138.658 186.049C138.692 186.003 138.732 185.966 138.777 185.938C138.829 185.909 138.894 185.895 138.974 185.895H139.547L130.858 197.843C130.783 197.946 130.684 197.997 130.558 197.997H129.977L138.658 186.049ZM140.599 195.123C140.599 195.619 140.531 196.058 140.394 196.44C140.257 196.817 140.072 197.13 139.838 197.381C139.61 197.632 139.342 197.823 139.034 197.954C138.726 198.08 138.401 198.142 138.059 198.142C137.705 198.142 137.372 198.08 137.058 197.954C136.75 197.823 136.482 197.632 136.254 197.381C136.026 197.13 135.847 196.817 135.715 196.44C135.584 196.058 135.519 195.619 135.519 195.123C135.519 194.621 135.584 194.18 135.715 193.798C135.847 193.416 136.026 193.099 136.254 192.848C136.482 192.592 136.75 192.401 137.058 192.275C137.372 192.144 137.705 192.078 138.059 192.078C138.412 192.078 138.743 192.144 139.051 192.275C139.359 192.401 139.627 192.592 139.855 192.848C140.089 193.099 140.271 193.416 140.402 193.798C140.534 194.18 140.599 194.621 140.599 195.123ZM139.949 195.123C139.949 194.684 139.898 194.308 139.795 193.994C139.698 193.675 139.564 193.416 139.393 193.216C139.222 193.011 139.02 192.862 138.786 192.771C138.558 192.674 138.315 192.626 138.059 192.626C137.802 192.626 137.557 192.674 137.323 192.771C137.095 192.862 136.896 193.011 136.725 193.216C136.554 193.416 136.417 193.675 136.314 193.994C136.217 194.308 136.169 194.684 136.169 195.123C136.169 195.562 136.217 195.939 136.314 196.252C136.417 196.56 136.554 196.814 136.725 197.013C136.896 197.213 137.095 197.358 137.323 197.45C137.557 197.541 137.802 197.586 138.059 197.586C138.315 197.586 138.558 197.541 138.786 197.45C139.02 197.358 139.222 197.213 139.393 197.013C139.564 196.814 139.698 196.56 139.795 196.252C139.898 195.939 139.949 195.562 139.949 195.123Z" fill="#333333"/>
<path d="M140.825 252.808C140.825 253.869 140.711 254.787 140.483 255.562C140.255 256.338 139.944 256.979 139.551 257.487C139.157 257.994 138.696 258.373 138.165 258.624C137.641 258.869 137.079 258.992 136.48 258.992C135.882 258.992 135.32 258.869 134.796 258.624C134.271 258.373 133.812 257.994 133.419 257.487C133.025 256.979 132.714 256.338 132.486 255.562C132.264 254.787 132.153 253.869 132.153 252.808C132.153 251.748 132.264 250.83 132.486 250.054C132.714 249.279 133.025 248.637 133.419 248.13C133.812 247.622 134.271 247.246 134.796 247.001C135.32 246.75 135.882 246.625 136.48 246.625C137.079 246.625 137.641 246.75 138.165 247.001C138.696 247.246 139.157 247.622 139.551 248.13C139.944 248.637 140.255 249.279 140.483 250.054C140.711 250.83 140.825 251.748 140.825 252.808ZM139.97 252.808C139.97 251.828 139.876 250.989 139.688 250.294C139.5 249.598 139.246 249.031 138.926 248.592C138.613 248.147 138.242 247.822 137.815 247.617C137.393 247.412 136.948 247.309 136.48 247.309C136.013 247.309 135.568 247.412 135.146 247.617C134.724 247.822 134.354 248.147 134.034 248.592C133.715 249.031 133.461 249.598 133.273 250.294C133.085 250.989 132.991 251.828 132.991 252.808C132.991 253.795 133.085 254.636 133.273 255.331C133.461 256.021 133.715 256.589 134.034 257.033C134.354 257.472 134.724 257.795 135.146 258C135.568 258.199 136.013 258.299 136.48 258.299C136.948 258.299 137.393 258.199 137.815 258C138.242 257.795 138.613 257.472 138.926 257.033C139.246 256.589 139.5 256.021 139.688 255.331C139.876 254.636 139.97 253.795 139.97 252.808Z" fill="#333333"/>
<path d="M99.4238 313.58H103.401V314.273H99.4238V313.58ZM113.831 313.674C113.831 314.734 113.717 315.652 113.489 316.428C113.26 317.203 112.95 317.845 112.556 318.352C112.163 318.86 111.701 319.239 111.171 319.49C110.646 319.735 110.085 319.857 109.486 319.857C108.887 319.857 108.326 319.735 107.801 319.49C107.276 319.239 106.817 318.86 106.424 318.352C106.031 317.845 105.72 317.203 105.492 316.428C105.269 315.652 105.158 314.734 105.158 313.674C105.158 312.613 105.269 311.695 105.492 310.92C105.72 310.144 106.031 309.503 106.424 308.996C106.817 308.488 107.276 308.112 107.801 307.867C108.326 307.616 108.887 307.49 109.486 307.49C110.085 307.49 110.646 307.616 111.171 307.867C111.701 308.112 112.163 308.488 112.556 308.996C112.95 309.503 113.26 310.144 113.489 310.92C113.717 311.695 113.831 312.613 113.831 313.674ZM112.975 313.674C112.975 312.693 112.881 311.855 112.693 311.159C112.505 310.464 112.251 309.896 111.932 309.457C111.618 309.013 111.248 308.688 110.82 308.482C110.398 308.277 109.953 308.174 109.486 308.174C109.018 308.174 108.574 308.277 108.152 308.482C107.73 308.688 107.359 309.013 107.04 309.457C106.72 309.896 106.467 310.464 106.279 311.159C106.09 311.855 105.996 312.693 105.996 313.674C105.996 314.66 106.09 315.501 106.279 316.197C106.467 316.887 106.72 317.454 107.04 317.899C107.359 318.338 107.73 318.66 108.152 318.865C108.574 319.065 109.018 319.165 109.486 319.165C109.953 319.165 110.398 319.065 110.82 318.865C111.248 318.66 111.618 318.338 111.932 317.899C112.251 317.454 112.505 316.887 112.693 316.197C112.881 315.501 112.975 314.66 112.975 313.674ZM115.688 321.765C115.659 321.742 115.639 321.719 115.628 321.696C115.622 321.674 115.619 321.648 115.619 321.619C115.619 321.585 115.642 321.54 115.688 321.482C115.739 321.425 115.808 321.34 115.893 321.226C115.984 321.118 116.076 320.986 116.167 320.832C116.264 320.684 116.349 320.516 116.423 320.328C116.503 320.14 116.555 319.937 116.577 319.721C116.492 319.749 116.403 319.763 116.312 319.763C116.101 319.763 115.927 319.692 115.791 319.55C115.659 319.407 115.594 319.225 115.594 319.002C115.594 318.803 115.662 318.632 115.799 318.489C115.936 318.346 116.116 318.275 116.338 318.275C116.583 318.275 116.771 318.361 116.902 318.532C117.039 318.697 117.108 318.917 117.108 319.19C117.108 319.424 117.076 319.661 117.014 319.9C116.957 320.145 116.871 320.385 116.757 320.619C116.643 320.852 116.506 321.078 116.346 321.294C116.187 321.511 116.01 321.711 115.816 321.893L115.688 321.765ZM124.638 315.607V309.269C124.638 309.172 124.641 309.067 124.647 308.953C124.658 308.839 124.67 308.722 124.681 308.602L119.447 315.607H124.638ZM127.572 315.607V316.052C127.572 316.114 127.552 316.166 127.512 316.205C127.478 316.24 127.421 316.257 127.341 316.257H125.357V319.729H124.638V316.257H118.917C118.831 316.257 118.765 316.24 118.72 316.205C118.674 316.166 118.643 316.114 118.626 316.052L118.549 315.65L124.63 307.61H125.357V315.607H127.572ZM134.065 310.535C134.065 311.031 133.996 311.47 133.86 311.852C133.723 312.228 133.537 312.542 133.304 312.793C133.07 313.044 132.799 313.235 132.491 313.366C132.183 313.491 131.858 313.554 131.516 313.554C131.163 313.554 130.829 313.491 130.515 313.366C130.208 313.235 129.94 313.044 129.711 312.793C129.483 312.542 129.304 312.228 129.173 311.852C129.041 311.47 128.976 311.031 128.976 310.535C128.976 310.033 129.041 309.591 129.173 309.209C129.304 308.827 129.483 308.511 129.711 308.26C129.94 308.003 130.208 307.812 130.515 307.687C130.829 307.556 131.163 307.49 131.516 307.49C131.87 307.49 132.2 307.556 132.508 307.687C132.816 307.812 133.084 308.003 133.312 308.26C133.546 308.511 133.728 308.827 133.86 309.209C133.996 309.591 134.065 310.033 134.065 310.535ZM133.415 310.535C133.415 310.096 133.363 309.72 133.261 309.406C133.164 309.092 133.027 308.836 132.85 308.636C132.679 308.431 132.477 308.283 132.243 308.192C132.015 308.095 131.773 308.046 131.516 308.046C131.259 308.046 131.017 308.095 130.789 308.192C130.561 308.283 130.361 308.431 130.19 308.636C130.019 308.836 129.883 309.092 129.78 309.406C129.683 309.72 129.634 310.096 129.634 310.535C129.634 310.974 129.683 311.35 129.78 311.664C129.883 311.972 130.019 312.226 130.19 312.425C130.361 312.625 130.561 312.773 130.789 312.87C131.017 312.961 131.259 313.007 131.516 313.007C131.773 313.007 132.015 312.961 132.243 312.87C132.477 312.773 132.679 312.625 132.85 312.425C133.027 312.226 133.164 311.972 133.261 311.664C133.363 311.35 133.415 310.974 133.415 310.535ZM138.658 307.781C138.692 307.735 138.732 307.698 138.777 307.67C138.829 307.641 138.894 307.627 138.974 307.627H139.547L130.858 319.575C130.783 319.678 130.684 319.729 130.558 319.729H129.977L138.658 307.781ZM140.599 316.855C140.599 317.352 140.531 317.791 140.394 318.173C140.257 318.549 140.072 318.863 139.838 319.113C139.61 319.364 139.342 319.555 139.034 319.686C138.726 319.812 138.401 319.875 138.059 319.875C137.705 319.875 137.372 319.812 137.058 319.686C136.75 319.555 136.482 319.364 136.254 319.113C136.026 318.863 135.847 318.549 135.715 318.173C135.584 317.791 135.519 317.352 135.519 316.855C135.519 316.354 135.584 315.912 135.715 315.53C135.847 315.148 136.026 314.831 136.254 314.58C136.482 314.324 136.75 314.133 137.058 314.007C137.372 313.876 137.705 313.811 138.059 313.811C138.412 313.811 138.743 313.876 139.051 314.007C139.359 314.133 139.627 314.324 139.855 314.58C140.089 314.831 140.271 315.148 140.402 315.53C140.534 315.912 140.599 316.354 140.599 316.855ZM139.949 316.855C139.949 316.416 139.898 316.04 139.795 315.727C139.698 315.407 139.564 315.148 139.393 314.948C139.222 314.743 139.02 314.595 138.786 314.503C138.558 314.407 138.315 314.358 138.059 314.358C137.802 314.358 137.557 314.407 137.323 314.503C137.095 314.595 136.896 314.743 136.725 314.948C136.554 315.148 136.417 315.407 136.314 315.727C136.217 316.04 136.169 316.416 136.169 316.855C136.169 317.295 136.217 317.671 136.314 317.984C136.417 318.292 136.554 318.546 136.725 318.746C136.896 318.945 137.095 319.091 137.323 319.182C137.557 319.273 137.802 319.319 138.059 319.319C138.315 319.319 138.558 319.273 138.786 319.182C139.02 319.091 139.222 318.945 139.393 318.746C139.564 318.546 139.698 318.292 139.795 317.984C139.898 317.671 139.949 317.295 139.949 316.855Z" fill="#333333"/>
<path d="M99.4238 374.446H103.401V375.139H99.4238V374.446ZM113.061 379.962V380.595H106.817V379.962H109.597V370.144C109.597 369.95 109.606 369.745 109.623 369.528L106.954 371.897C106.874 371.966 106.795 371.991 106.715 371.974C106.635 371.957 106.572 371.923 106.527 371.872L106.279 371.529L109.777 368.442H110.418V379.962H113.061ZM115.688 382.631C115.659 382.608 115.639 382.585 115.628 382.562C115.622 382.54 115.619 382.514 115.619 382.485C115.619 382.451 115.642 382.406 115.688 382.349C115.739 382.292 115.808 382.206 115.893 382.092C115.984 381.984 116.076 381.853 116.167 381.699C116.264 381.55 116.349 381.382 116.423 381.194C116.503 381.006 116.555 380.803 116.577 380.587C116.492 380.615 116.403 380.63 116.312 380.63C116.101 380.63 115.927 380.558 115.791 380.416C115.659 380.273 115.594 380.091 115.594 379.868C115.594 379.669 115.662 379.498 115.799 379.355C115.936 379.213 116.116 379.141 116.338 379.141C116.583 379.141 116.771 379.227 116.902 379.398C117.039 379.563 117.108 379.783 117.108 380.057C117.108 380.29 117.076 380.527 117.014 380.766C116.957 381.012 116.871 381.251 116.757 381.485C116.643 381.719 116.506 381.944 116.346 382.16C116.187 382.377 116.01 382.577 115.816 382.759L115.688 382.631ZM126.7 379.826C126.791 379.826 126.862 379.854 126.913 379.911C126.965 379.962 126.99 380.031 126.99 380.116V380.595H119.182V380.305C119.182 380.242 119.196 380.179 119.224 380.116C119.259 380.048 119.301 379.991 119.353 379.945L123.484 375.763C123.826 375.415 124.142 375.079 124.433 374.754C124.724 374.429 124.975 374.101 125.186 373.77C125.402 373.44 125.571 373.1 125.69 372.752C125.81 372.405 125.87 372.034 125.87 371.641C125.87 371.196 125.796 370.811 125.648 370.486C125.499 370.155 125.303 369.884 125.057 369.674C124.812 369.463 124.527 369.306 124.202 369.203C123.877 369.1 123.541 369.049 123.193 369.049C122.811 369.049 122.457 369.109 122.132 369.229C121.813 369.343 121.528 369.505 121.277 369.716C121.032 369.922 120.827 370.17 120.661 370.46C120.502 370.745 120.39 371.059 120.328 371.401C120.288 371.527 120.234 371.609 120.165 371.649C120.103 371.689 120.014 371.703 119.9 371.692L119.481 371.624C119.555 371.105 119.698 370.643 119.909 370.238C120.12 369.833 120.388 369.491 120.713 369.212C121.038 368.932 121.414 368.721 121.842 368.579C122.269 368.431 122.731 368.356 123.227 368.356C123.689 368.356 124.128 368.425 124.544 368.562C124.966 368.693 125.337 368.895 125.656 369.169C125.981 369.437 126.238 369.776 126.426 370.187C126.614 370.591 126.708 371.068 126.708 371.615C126.708 372.071 126.637 372.496 126.494 372.889C126.357 373.277 126.169 373.651 125.93 374.01C125.69 374.369 125.411 374.72 125.092 375.062C124.778 375.398 124.447 375.743 124.1 376.097L120.311 379.962C120.493 379.917 120.681 379.883 120.875 379.86C121.075 379.837 121.274 379.826 121.474 379.826H126.7ZM134.065 371.401C134.065 371.897 133.996 372.336 133.86 372.718C133.723 373.095 133.537 373.408 133.304 373.659C133.07 373.91 132.799 374.101 132.491 374.232C132.183 374.358 131.858 374.42 131.516 374.42C131.163 374.42 130.829 374.358 130.515 374.232C130.208 374.101 129.94 373.91 129.711 373.659C129.483 373.408 129.304 373.095 129.173 372.718C129.041 372.336 128.976 371.897 128.976 371.401C128.976 370.899 129.041 370.458 129.173 370.075C129.304 369.693 129.483 369.377 129.711 369.126C129.94 368.87 130.208 368.679 130.515 368.553C130.829 368.422 131.163 368.356 131.516 368.356C131.87 368.356 132.2 368.422 132.508 368.553C132.816 368.679 133.084 368.87 133.312 369.126C133.546 369.377 133.728 369.693 133.86 370.075C133.996 370.458 134.065 370.899 134.065 371.401ZM133.415 371.401C133.415 370.962 133.363 370.586 133.261 370.272C133.164 369.959 133.027 369.702 132.85 369.502C132.679 369.297 132.477 369.149 132.243 369.058C132.015 368.961 131.773 368.912 131.516 368.912C131.259 368.912 131.017 368.961 130.789 369.058C130.561 369.149 130.361 369.297 130.19 369.502C130.019 369.702 129.883 369.959 129.78 370.272C129.683 370.586 129.634 370.962 129.634 371.401C129.634 371.84 129.683 372.217 129.78 372.53C129.883 372.838 130.019 373.092 130.19 373.291C130.361 373.491 130.561 373.639 130.789 373.736C131.017 373.827 131.259 373.873 131.516 373.873C131.773 373.873 132.015 373.827 132.243 373.736C132.477 373.639 132.679 373.491 132.85 373.291C133.027 373.092 133.164 372.838 133.261 372.53C133.363 372.217 133.415 371.84 133.415 371.401ZM138.658 368.647C138.692 368.602 138.732 368.564 138.777 368.536C138.829 368.507 138.894 368.493 138.974 368.493H139.547L130.858 380.441C130.783 380.544 130.684 380.595 130.558 380.595H129.977L138.658 368.647ZM140.599 377.722C140.599 378.218 140.531 378.657 140.394 379.039C140.257 379.415 140.072 379.729 139.838 379.98C139.61 380.23 139.342 380.421 139.034 380.553C138.726 380.678 138.401 380.741 138.059 380.741C137.705 380.741 137.372 380.678 137.058 380.553C136.75 380.421 136.482 380.23 136.254 379.98C136.026 379.729 135.847 379.415 135.715 379.039C135.584 378.657 135.519 378.218 135.519 377.722C135.519 377.22 135.584 376.778 135.715 376.396C135.847 376.014 136.026 375.697 136.254 375.447C136.482 375.19 136.75 374.999 137.058 374.874C137.372 374.742 137.705 374.677 138.059 374.677C138.412 374.677 138.743 374.742 139.051 374.874C139.359 374.999 139.627 375.19 139.855 375.447C140.089 375.697 140.271 376.014 140.402 376.396C140.534 376.778 140.599 377.22 140.599 377.722ZM139.949 377.722C139.949 377.283 139.898 376.906 139.795 376.593C139.698 376.273 139.564 376.014 139.393 375.814C139.222 375.609 139.02 375.461 138.786 375.37C138.558 375.273 138.315 375.224 138.059 375.224C137.802 375.224 137.557 375.273 137.323 375.37C137.095 375.461 136.896 375.609 136.725 375.814C136.554 376.014 136.417 376.273 136.314 376.593C136.217 376.906 136.169 377.283 136.169 377.722C136.169 378.161 136.217 378.537 136.314 378.851C136.417 379.158 136.554 379.412 136.725 379.612C136.896 379.811 137.095 379.957 137.323 380.048C137.557 380.139 137.802 380.185 138.059 380.185C138.315 380.185 138.558 380.139 138.786 380.048C139.02 379.957 139.222 379.811 139.393 379.612C139.564 379.412 139.698 379.158 139.795 378.851C139.898 378.537 139.949 378.161 139.949 377.722Z" fill="#333333"/>
<path d="M638.212 129.262L738.548 94.771V420.404H236.869H154.314V259.109L236.869 198.243L337.205 129.262H437.54L537.876 161.724L638.212 129.262Z" fill="#E3E6E9"/>
<path d="M212.384 295.449C212.384 296.51 212.27 297.428 212.041 298.203C211.813 298.979 211.503 299.62 211.109 300.128C210.716 300.635 210.254 301.014 209.724 301.265C209.199 301.511 208.637 301.633 208.039 301.633C207.44 301.633 206.878 301.511 206.354 301.265C205.829 301.014 205.37 300.635 204.977 300.128C204.583 299.62 204.273 298.979 204.045 298.203C203.822 297.428 203.711 296.51 203.711 295.449C203.711 294.389 203.822 293.471 204.045 292.696C204.273 291.92 204.583 291.279 204.977 290.771C205.37 290.264 205.829 289.887 206.354 289.642C206.878 289.391 207.44 289.266 208.039 289.266C208.637 289.266 209.199 289.391 209.724 289.642C210.254 289.887 210.716 290.264 211.109 290.771C211.503 291.279 211.813 291.92 212.041 292.696C212.27 293.471 212.384 294.389 212.384 295.449ZM211.528 295.449C211.528 294.469 211.434 293.631 211.246 292.935C211.058 292.239 210.804 291.672 210.485 291.233C210.171 290.788 209.801 290.463 209.373 290.258C208.951 290.053 208.506 289.95 208.039 289.95C207.571 289.95 207.127 290.053 206.705 290.258C206.283 290.463 205.912 290.788 205.593 291.233C205.273 291.672 205.02 292.239 204.832 292.935C204.643 293.631 204.549 294.469 204.549 295.449C204.549 296.436 204.643 297.277 204.832 297.973C205.02 298.662 205.273 299.23 205.593 299.675C205.912 300.114 206.283 300.436 206.705 300.641C207.127 300.841 207.571 300.94 208.039 300.94C208.506 300.94 208.951 300.841 209.373 300.641C209.801 300.436 210.171 300.114 210.485 299.675C210.804 299.23 211.058 298.662 211.246 297.973C211.434 297.277 211.528 296.436 211.528 295.449ZM221.536 300.872V301.505H215.293V300.872H218.072V291.053C218.072 290.86 218.081 290.654 218.098 290.438L215.43 292.807C215.35 292.875 215.27 292.901 215.19 292.884C215.11 292.867 215.048 292.832 215.002 292.781L214.754 292.439L218.252 289.351H218.894V300.872H221.536ZM224.138 300.846C224.138 300.738 224.158 300.635 224.198 300.538C224.237 300.441 224.292 300.359 224.36 300.29C224.434 300.216 224.517 300.159 224.608 300.119C224.705 300.074 224.811 300.051 224.925 300.051C225.033 300.051 225.136 300.074 225.232 300.119C225.329 300.159 225.412 300.216 225.48 300.29C225.555 300.359 225.612 300.441 225.652 300.538C225.697 300.635 225.72 300.738 225.72 300.846C225.72 300.96 225.697 301.066 225.652 301.163C225.612 301.254 225.555 301.337 225.48 301.411C225.412 301.479 225.329 301.533 225.232 301.573C225.136 301.613 225.033 301.633 224.925 301.633C224.702 301.633 224.514 301.559 224.36 301.411C224.212 301.257 224.138 301.069 224.138 300.846ZM236.221 295.449C236.221 296.51 236.107 297.428 235.879 298.203C235.651 298.979 235.34 299.62 234.947 300.128C234.553 300.635 234.091 301.014 233.561 301.265C233.037 301.511 232.475 301.633 231.876 301.633C231.277 301.633 230.716 301.511 230.191 301.265C229.667 301.014 229.208 300.635 228.814 300.128C228.421 299.62 228.11 298.979 227.882 298.203C227.66 297.428 227.549 296.51 227.549 295.449C227.549 294.389 227.66 293.471 227.882 292.696C228.11 291.92 228.421 291.279 228.814 290.771C229.208 290.264 229.667 289.887 230.191 289.642C230.716 289.391 231.277 289.266 231.876 289.266C232.475 289.266 233.037 289.391 233.561 289.642C234.091 289.887 234.553 290.264 234.947 290.771C235.34 291.279 235.651 291.92 235.879 292.696C236.107 293.471 236.221 294.389 236.221 295.449ZM235.366 295.449C235.366 294.469 235.272 293.631 235.083 292.935C234.895 292.239 234.642 291.672 234.322 291.233C234.009 290.788 233.638 290.463 233.21 290.258C232.788 290.053 232.344 289.95 231.876 289.95C231.409 289.95 230.964 290.053 230.542 290.258C230.12 290.463 229.749 290.788 229.43 291.233C229.111 291.672 228.857 292.239 228.669 292.935C228.481 293.631 228.387 294.469 228.387 295.449C228.387 296.436 228.481 297.277 228.669 297.973C228.857 298.662 229.111 299.23 229.43 299.675C229.749 300.114 230.12 300.436 230.542 300.641C230.964 300.841 231.409 300.94 231.876 300.94C232.344 300.94 232.788 300.841 233.21 300.641C233.638 300.436 234.009 300.114 234.322 299.675C234.642 299.23 234.895 298.662 235.083 297.973C235.272 297.277 235.366 296.436 235.366 295.449ZM243.287 297.382V291.045C243.287 290.948 243.29 290.842 243.295 290.728C243.307 290.614 243.318 290.497 243.33 290.378L238.095 297.382H243.287ZM246.22 297.382V297.827C246.22 297.89 246.2 297.941 246.161 297.981C246.126 298.015 246.069 298.032 245.99 298.032H244.005V301.505H243.287V298.032H237.565C237.48 298.032 237.414 298.015 237.368 297.981C237.323 297.941 237.291 297.89 237.274 297.827L237.197 297.425L243.278 289.386H244.005V297.382H246.22ZM247.975 300.846C247.975 300.738 247.995 300.635 248.035 300.538C248.075 300.441 248.129 300.359 248.197 300.29C248.272 300.216 248.354 300.159 248.445 300.119C248.542 300.074 248.648 300.051 248.762 300.051C248.87 300.051 248.973 300.074 249.07 300.119C249.167 300.159 249.249 300.216 249.318 300.29C249.392 300.359 249.449 300.441 249.489 300.538C249.535 300.635 249.557 300.738 249.557 300.846C249.557 300.96 249.535 301.066 249.489 301.163C249.449 301.254 249.392 301.337 249.318 301.411C249.249 301.479 249.167 301.533 249.07 301.573C248.973 301.613 248.87 301.633 248.762 301.633C248.54 301.633 248.351 301.559 248.197 301.411C248.049 301.257 247.975 301.069 247.975 300.846ZM259.263 300.735C259.354 300.735 259.425 300.764 259.477 300.821C259.528 300.872 259.554 300.94 259.554 301.026V301.505H251.745V301.214C251.745 301.151 251.759 301.089 251.788 301.026C251.822 300.957 251.865 300.9 251.916 300.855L256.047 296.673C256.389 296.325 256.706 295.988 256.996 295.663C257.287 295.338 257.538 295.01 257.749 294.68C257.966 294.349 258.134 294.01 258.254 293.662C258.373 293.314 258.433 292.944 258.433 292.55C258.433 292.105 258.359 291.721 258.211 291.395C258.063 291.065 257.866 290.794 257.621 290.583C257.376 290.372 257.091 290.215 256.766 290.113C256.441 290.01 256.104 289.959 255.756 289.959C255.374 289.959 255.021 290.019 254.696 290.138C254.376 290.252 254.091 290.415 253.841 290.626C253.595 290.831 253.39 291.079 253.225 291.37C253.065 291.655 252.954 291.969 252.891 292.311C252.851 292.436 252.797 292.519 252.729 292.559C252.666 292.599 252.578 292.613 252.464 292.601L252.044 292.533C252.119 292.014 252.261 291.552 252.472 291.147C252.683 290.743 252.951 290.401 253.276 290.121C253.601 289.842 253.977 289.631 254.405 289.488C254.833 289.34 255.294 289.266 255.791 289.266C256.252 289.266 256.691 289.334 257.108 289.471C257.53 289.602 257.9 289.805 258.22 290.078C258.545 290.346 258.801 290.686 258.989 291.096C259.177 291.501 259.272 291.977 259.272 292.524C259.272 292.981 259.2 293.405 259.058 293.799C258.921 294.187 258.733 294.56 258.493 294.919C258.254 295.278 257.974 295.629 257.655 295.971C257.341 296.308 257.011 296.653 256.663 297.006L252.874 300.872C253.057 300.826 253.245 300.792 253.439 300.769C253.638 300.746 253.838 300.735 254.037 300.735H259.263ZM269.981 295.449C269.981 296.51 269.867 297.428 269.639 298.203C269.411 298.979 269.1 299.62 268.706 300.128C268.313 300.635 267.851 301.014 267.321 301.265C266.796 301.511 266.235 301.633 265.636 301.633C265.037 301.633 264.476 301.511 263.951 301.265C263.427 301.014 262.968 300.635 262.574 300.128C262.181 299.62 261.87 298.979 261.642 298.203C261.42 297.428 261.308 296.51 261.308 295.449C261.308 294.389 261.42 293.471 261.642 292.696C261.87 291.92 262.181 291.279 262.574 290.771C262.968 290.264 263.427 289.887 263.951 289.642C264.476 289.391 265.037 289.266 265.636 289.266C266.235 289.266 266.796 289.391 267.321 289.642C267.851 289.887 268.313 290.264 268.706 290.771C269.1 291.279 269.411 291.92 269.639 292.696C269.867 293.471 269.981 294.389 269.981 295.449ZM269.126 295.449C269.126 294.469 269.032 293.631 268.843 292.935C268.655 292.239 268.401 291.672 268.082 291.233C267.769 290.788 267.398 290.463 266.97 290.258C266.548 290.053 266.104 289.95 265.636 289.95C265.169 289.95 264.724 290.053 264.302 290.258C263.88 290.463 263.509 290.788 263.19 291.233C262.871 291.672 262.617 292.239 262.429 292.935C262.241 293.631 262.147 294.469 262.147 295.449C262.147 296.436 262.241 297.277 262.429 297.973C262.617 298.662 262.871 299.23 263.19 299.675C263.509 300.114 263.88 300.436 264.302 300.641C264.724 300.841 265.169 300.94 265.636 300.94C266.104 300.94 266.548 300.841 266.97 300.641C267.398 300.436 267.769 300.114 268.082 299.675C268.401 299.23 268.655 298.662 268.843 297.973C269.032 297.277 269.126 296.436 269.126 295.449Z" fill="#333333"/>
<circle cx="236.847" cy="188.287" r="4.98909" fill="#333333" stroke="#333333" stroke-width="1.42545"/>
<path d="M311.856 296.315C311.856 297.376 311.742 298.294 311.514 299.069C311.286 299.845 310.975 300.486 310.582 300.994C310.188 301.501 309.727 301.88 309.196 302.131C308.672 302.376 308.11 302.499 307.511 302.499C306.913 302.499 306.351 302.376 305.827 302.131C305.302 301.88 304.843 301.501 304.45 300.994C304.056 300.486 303.745 299.845 303.517 299.069C303.295 298.294 303.184 297.376 303.184 296.315C303.184 295.255 303.295 294.337 303.517 293.561C303.745 292.786 304.056 292.144 304.45 291.637C304.843 291.13 305.302 290.753 305.827 290.508C306.351 290.257 306.913 290.132 307.511 290.132C308.11 290.132 308.672 290.257 309.196 290.508C309.727 290.753 310.188 291.13 310.582 291.637C310.975 292.144 311.286 292.786 311.514 293.561C311.742 294.337 311.856 295.255 311.856 296.315ZM311.001 296.315C311.001 295.335 310.907 294.496 310.719 293.801C310.531 293.105 310.277 292.538 309.958 292.099C309.644 291.654 309.273 291.329 308.846 291.124C308.424 290.919 307.979 290.816 307.511 290.816C307.044 290.816 306.599 290.919 306.177 291.124C305.755 291.329 305.385 291.654 305.065 292.099C304.746 292.538 304.492 293.105 304.304 293.801C304.116 294.496 304.022 295.335 304.022 296.315C304.022 297.302 304.116 298.143 304.304 298.838C304.492 299.528 304.746 300.096 305.065 300.54C305.385 300.979 305.755 301.302 306.177 301.507C306.599 301.706 307.044 301.806 307.511 301.806C307.979 301.806 308.424 301.706 308.846 301.507C309.273 301.302 309.644 300.979 309.958 300.54C310.277 300.096 310.531 299.528 310.719 298.838C310.907 298.143 311.001 297.302 311.001 296.315ZM321.009 301.738V302.371H314.766V301.738H317.545V291.919C317.545 291.725 317.554 291.52 317.571 291.303L314.902 293.673C314.823 293.741 314.743 293.767 314.663 293.75C314.583 293.732 314.52 293.698 314.475 293.647L314.227 293.305L317.725 290.217H318.366V301.738H321.009ZM323.61 301.712C323.61 301.604 323.63 301.501 323.67 301.404C323.71 301.307 323.764 301.225 323.833 301.156C323.907 301.082 323.99 301.025 324.081 300.985C324.178 300.94 324.283 300.917 324.397 300.917C324.506 300.917 324.608 300.94 324.705 300.985C324.802 301.025 324.885 301.082 324.953 301.156C325.027 301.225 325.084 301.307 325.124 301.404C325.17 301.501 325.193 301.604 325.193 301.712C325.193 301.826 325.17 301.932 325.124 302.029C325.084 302.12 325.027 302.202 324.953 302.277C324.885 302.345 324.802 302.399 324.705 302.439C324.608 302.479 324.506 302.499 324.397 302.499C324.175 302.499 323.987 302.425 323.833 302.277C323.684 302.123 323.61 301.934 323.61 301.712ZM335.694 296.315C335.694 297.376 335.58 298.294 335.352 299.069C335.123 299.845 334.813 300.486 334.419 300.994C334.026 301.501 333.564 301.88 333.034 302.131C332.509 302.376 331.948 302.499 331.349 302.499C330.75 302.499 330.189 302.376 329.664 302.131C329.139 301.88 328.68 301.501 328.287 300.994C327.894 300.486 327.583 299.845 327.355 299.069C327.132 298.294 327.021 297.376 327.021 296.315C327.021 295.255 327.132 294.337 327.355 293.561C327.583 292.786 327.894 292.144 328.287 291.637C328.68 291.13 329.139 290.753 329.664 290.508C330.189 290.257 330.75 290.132 331.349 290.132C331.948 290.132 332.509 290.257 333.034 290.508C333.564 290.753 334.026 291.13 334.419 291.637C334.813 292.144 335.123 292.786 335.352 293.561C335.58 294.337 335.694 295.255 335.694 296.315ZM334.838 296.315C334.838 295.335 334.744 294.496 334.556 293.801C334.368 293.105 334.114 292.538 333.795 292.099C333.481 291.654 333.111 291.329 332.683 291.124C332.261 290.919 331.816 290.816 331.349 290.816C330.881 290.816 330.437 290.919 330.015 291.124C329.593 291.329 329.222 291.654 328.903 292.099C328.583 292.538 328.33 293.105 328.142 293.801C327.953 294.496 327.859 295.335 327.859 296.315C327.859 297.302 327.953 298.143 328.142 298.838C328.33 299.528 328.583 300.096 328.903 300.54C329.222 300.979 329.593 301.302 330.015 301.507C330.437 301.706 330.881 301.806 331.349 301.806C331.816 301.806 332.261 301.706 332.683 301.507C333.111 301.302 333.481 300.979 333.795 300.54C334.114 300.096 334.368 299.528 334.556 298.838C334.744 298.143 334.838 297.302 334.838 296.315ZM342.76 298.248V291.911C342.76 291.814 342.762 291.708 342.768 291.594C342.779 291.48 342.791 291.363 342.802 291.244L337.568 298.248H342.76ZM345.693 298.248V298.693C345.693 298.756 345.673 298.807 345.633 298.847C345.599 298.881 345.542 298.898 345.462 298.898H343.478V302.371H342.76V298.898H337.038C336.952 298.898 336.887 298.881 336.841 298.847C336.795 298.807 336.764 298.756 336.747 298.693L336.67 298.291L342.751 290.251H343.478V298.248H345.693ZM347.448 301.712C347.448 301.604 347.468 301.501 347.508 301.404C347.548 301.307 347.602 301.225 347.67 301.156C347.744 301.082 347.827 301.025 347.918 300.985C348.015 300.94 348.121 300.917 348.235 300.917C348.343 300.917 348.446 300.94 348.542 300.985C348.639 301.025 348.722 301.082 348.791 301.156C348.865 301.225 348.922 301.307 348.962 301.404C349.007 301.501 349.03 301.604 349.03 301.712C349.03 301.826 349.007 301.932 348.962 302.029C348.922 302.12 348.865 302.202 348.791 302.277C348.722 302.345 348.639 302.399 348.542 302.439C348.446 302.479 348.343 302.499 348.235 302.499C348.012 302.499 347.824 302.425 347.67 302.277C347.522 302.123 347.448 301.934 347.448 301.712ZM358.736 301.601C358.827 301.601 358.898 301.629 358.949 301.686C359.001 301.738 359.026 301.806 359.026 301.892V302.371H351.218V302.08C351.218 302.017 351.232 301.954 351.261 301.892C351.295 301.823 351.337 301.766 351.389 301.721L355.52 297.538C355.862 297.191 356.178 296.854 356.469 296.529C356.76 296.204 357.011 295.876 357.222 295.546C357.438 295.215 357.607 294.876 357.726 294.528C357.846 294.18 357.906 293.809 357.906 293.416C357.906 292.971 357.832 292.586 357.684 292.261C357.535 291.931 357.339 291.66 357.093 291.449C356.848 291.238 356.563 291.081 356.238 290.978C355.913 290.876 355.577 290.824 355.229 290.824C354.847 290.824 354.493 290.884 354.168 291.004C353.849 291.118 353.564 291.281 353.313 291.492C353.068 291.697 352.863 291.945 352.697 292.236C352.538 292.521 352.427 292.834 352.364 293.176C352.324 293.302 352.27 293.385 352.201 293.425C352.139 293.464 352.05 293.479 351.936 293.467L351.517 293.399C351.591 292.88 351.734 292.418 351.945 292.013C352.156 291.608 352.424 291.266 352.749 290.987C353.074 290.708 353.45 290.497 353.878 290.354C354.305 290.206 354.767 290.132 355.263 290.132C355.725 290.132 356.164 290.2 356.58 290.337C357.002 290.468 357.373 290.671 357.692 290.944C358.017 291.212 358.274 291.551 358.462 291.962C358.65 292.367 358.744 292.843 358.744 293.39C358.744 293.846 358.673 294.271 358.53 294.665C358.393 295.052 358.205 295.426 357.966 295.785C357.726 296.144 357.447 296.495 357.128 296.837C356.814 297.173 356.483 297.518 356.136 297.872L352.347 301.738C352.529 301.692 352.717 301.658 352.911 301.635C353.111 301.612 353.31 301.601 353.51 301.601H358.736ZM369.454 296.315C369.454 297.376 369.339 298.294 369.111 299.069C368.883 299.845 368.573 300.486 368.179 300.994C367.786 301.501 367.324 301.88 366.794 302.131C366.269 302.376 365.707 302.499 365.109 302.499C364.51 302.499 363.948 302.376 363.424 302.131C362.899 301.88 362.44 301.501 362.047 300.994C361.653 300.486 361.343 299.845 361.115 299.069C360.892 298.294 360.781 297.376 360.781 296.315C360.781 295.255 360.892 294.337 361.115 293.561C361.343 292.786 361.653 292.144 362.047 291.637C362.44 291.13 362.899 290.753 363.424 290.508C363.948 290.257 364.51 290.132 365.109 290.132C365.707 290.132 366.269 290.257 366.794 290.508C367.324 290.753 367.786 291.13 368.179 291.637C368.573 292.144 368.883 292.786 369.111 293.561C369.339 294.337 369.454 295.255 369.454 296.315ZM368.598 296.315C368.598 295.335 368.504 294.496 368.316 293.801C368.128 293.105 367.874 292.538 367.555 292.099C367.241 291.654 366.871 291.329 366.443 291.124C366.021 290.919 365.576 290.816 365.109 290.816C364.641 290.816 364.196 290.919 363.775 291.124C363.353 291.329 362.982 291.654 362.663 292.099C362.343 292.538 362.09 293.105 361.901 293.801C361.713 294.496 361.619 295.335 361.619 296.315C361.619 297.302 361.713 298.143 361.901 298.838C362.09 299.528 362.343 300.096 362.663 300.54C362.982 300.979 363.353 301.302 363.775 301.507C364.196 301.706 364.641 301.806 365.109 301.806C365.576 301.806 366.021 301.706 366.443 301.507C366.871 301.302 367.241 300.979 367.555 300.54C367.874 300.096 368.128 299.528 368.316 298.838C368.504 298.143 368.598 297.302 368.598 296.315Z" fill="#333333"/>
<circle cx="337.745" cy="119.305" r="4.98909" fill="#333333" stroke="#333333" stroke-width="1.42545"/>
<path d="M412.691 296.315C412.691 297.376 412.577 298.294 412.349 299.069C412.121 299.845 411.81 300.486 411.417 300.994C411.023 301.501 410.562 301.88 410.031 302.131C409.507 302.376 408.945 302.499 408.346 302.499C407.748 302.499 407.186 302.376 406.662 302.131C406.137 301.88 405.678 301.501 405.285 300.994C404.891 300.486 404.58 299.845 404.352 299.069C404.13 298.294 404.019 297.376 404.019 296.315C404.019 295.255 404.13 294.337 404.352 293.561C404.58 292.786 404.891 292.144 405.285 291.637C405.678 291.13 406.137 290.753 406.662 290.508C407.186 290.257 407.748 290.132 408.346 290.132C408.945 290.132 409.507 290.257 410.031 290.508C410.562 290.753 411.023 291.13 411.417 291.637C411.81 292.144 412.121 292.786 412.349 293.561C412.577 294.337 412.691 295.255 412.691 296.315ZM411.836 296.315C411.836 295.335 411.742 294.496 411.554 293.801C411.366 293.105 411.112 292.538 410.792 292.099C410.479 291.654 410.108 291.329 409.681 291.124C409.259 290.919 408.814 290.816 408.346 290.816C407.879 290.816 407.434 290.919 407.012 291.124C406.59 291.329 406.22 291.654 405.9 292.099C405.581 292.538 405.327 293.105 405.139 293.801C404.951 294.496 404.857 295.335 404.857 296.315C404.857 297.302 404.951 298.143 405.139 298.838C405.327 299.528 405.581 300.096 405.9 300.54C406.22 300.979 406.59 301.302 407.012 301.507C407.434 301.706 407.879 301.806 408.346 301.806C408.814 301.806 409.259 301.706 409.681 301.507C410.108 301.302 410.479 300.979 410.792 300.54C411.112 300.096 411.366 299.528 411.554 298.838C411.742 298.143 411.836 297.302 411.836 296.315ZM421.844 301.738V302.371H415.6V301.738H418.38V291.919C418.38 291.725 418.389 291.52 418.406 291.303L415.737 293.673C415.657 293.741 415.578 293.767 415.498 293.75C415.418 293.732 415.355 293.698 415.31 293.647L415.062 293.305L418.56 290.217H419.201V301.738H421.844ZM424.445 301.712C424.445 301.604 424.465 301.501 424.505 301.404C424.545 301.307 424.599 301.225 424.668 301.156C424.742 301.082 424.824 301.025 424.916 300.985C425.013 300.94 425.118 300.917 425.232 300.917C425.341 300.917 425.443 300.94 425.54 300.985C425.637 301.025 425.72 301.082 425.788 301.156C425.862 301.225 425.919 301.307 425.959 301.404C426.005 301.501 426.028 301.604 426.028 301.712C426.028 301.826 426.005 301.932 425.959 302.029C425.919 302.12 425.862 302.202 425.788 302.277C425.72 302.345 425.637 302.399 425.54 302.439C425.443 302.479 425.341 302.499 425.232 302.499C425.01 302.499 424.822 302.425 424.668 302.277C424.519 302.123 424.445 301.934 424.445 301.712ZM436.529 296.315C436.529 297.376 436.415 298.294 436.186 299.069C435.958 299.845 435.648 300.486 435.254 300.994C434.861 301.501 434.399 301.88 433.869 302.131C433.344 302.376 432.782 302.499 432.184 302.499C431.585 302.499 431.023 302.376 430.499 302.131C429.974 301.88 429.515 301.501 429.122 300.994C428.728 300.486 428.418 299.845 428.19 299.069C427.967 298.294 427.856 297.376 427.856 296.315C427.856 295.255 427.967 294.337 428.19 293.561C428.418 292.786 428.728 292.144 429.122 291.637C429.515 291.13 429.974 290.753 430.499 290.508C431.023 290.257 431.585 290.132 432.184 290.132C432.782 290.132 433.344 290.257 433.869 290.508C434.399 290.753 434.861 291.13 435.254 291.637C435.648 292.144 435.958 292.786 436.186 293.561C436.415 294.337 436.529 295.255 436.529 296.315ZM435.673 296.315C435.673 295.335 435.579 294.496 435.391 293.801C435.203 293.105 434.949 292.538 434.63 292.099C434.316 291.654 433.946 291.329 433.518 291.124C433.096 290.919 432.651 290.816 432.184 290.816C431.716 290.816 431.272 290.919 430.85 291.124C430.428 291.329 430.057 291.654 429.738 292.099C429.418 292.538 429.165 293.105 428.977 293.801C428.788 294.496 428.694 295.335 428.694 296.315C428.694 297.302 428.788 298.143 428.977 298.838C429.165 299.528 429.418 300.096 429.738 300.54C430.057 300.979 430.428 301.302 430.85 301.507C431.272 301.706 431.716 301.806 432.184 301.806C432.651 301.806 433.096 301.706 433.518 301.507C433.946 301.302 434.316 300.979 434.63 300.54C434.949 300.096 435.203 299.528 435.391 298.838C435.579 298.143 435.673 297.302 435.673 296.315ZM443.594 298.248V291.911C443.594 291.814 443.597 291.708 443.603 291.594C443.614 291.48 443.626 291.363 443.637 291.244L438.403 298.248H443.594ZM446.528 298.248V298.693C446.528 298.756 446.508 298.807 446.468 298.847C446.434 298.881 446.377 298.898 446.297 298.898H444.313V302.371H443.594V298.898H437.873C437.787 298.898 437.722 298.881 437.676 298.847C437.63 298.807 437.599 298.756 437.582 298.693L437.505 298.291L443.586 290.251H444.313V298.248H446.528ZM448.283 301.712C448.283 301.604 448.303 301.501 448.343 301.404C448.382 301.307 448.437 301.225 448.505 301.156C448.579 301.082 448.662 301.025 448.753 300.985C448.85 300.94 448.956 300.917 449.07 300.917C449.178 300.917 449.281 300.94 449.377 300.985C449.474 301.025 449.557 301.082 449.625 301.156C449.7 301.225 449.757 301.307 449.797 301.404C449.842 301.501 449.865 301.604 449.865 301.712C449.865 301.826 449.842 301.932 449.797 302.029C449.757 302.12 449.7 302.202 449.625 302.277C449.557 302.345 449.474 302.399 449.377 302.439C449.281 302.479 449.178 302.499 449.07 302.499C448.847 302.499 448.659 302.425 448.505 302.277C448.357 302.123 448.283 301.934 448.283 301.712ZM459.571 301.601C459.662 301.601 459.733 301.629 459.784 301.686C459.836 301.738 459.861 301.806 459.861 301.892V302.371H452.053V302.08C452.053 302.017 452.067 301.954 452.095 301.892C452.13 301.823 452.172 301.766 452.224 301.721L456.355 297.538C456.697 297.191 457.013 296.854 457.304 296.529C457.595 296.204 457.846 295.876 458.057 295.546C458.273 295.215 458.442 294.876 458.561 294.528C458.681 294.18 458.741 293.809 458.741 293.416C458.741 292.971 458.667 292.586 458.519 292.261C458.37 291.931 458.174 291.66 457.928 291.449C457.683 291.238 457.398 291.081 457.073 290.978C456.748 290.876 456.412 290.824 456.064 290.824C455.682 290.824 455.328 290.884 455.003 291.004C454.684 291.118 454.399 291.281 454.148 291.492C453.903 291.697 453.698 291.945 453.532 292.236C453.373 292.521 453.262 292.834 453.199 293.176C453.159 293.302 453.105 293.385 453.036 293.425C452.974 293.464 452.885 293.479 452.771 293.467L452.352 293.399C452.426 292.88 452.569 292.418 452.78 292.013C452.991 291.608 453.259 291.266 453.584 290.987C453.909 290.708 454.285 290.497 454.713 290.354C455.14 290.206 455.602 290.132 456.098 290.132C456.56 290.132 456.999 290.2 457.415 290.337C457.837 290.468 458.208 290.671 458.527 290.944C458.852 291.212 459.109 291.551 459.297 291.962C459.485 292.367 459.579 292.843 459.579 293.39C459.579 293.846 459.508 294.271 459.365 294.665C459.228 295.052 459.04 295.426 458.801 295.785C458.561 296.144 458.282 296.495 457.963 296.837C457.649 297.173 457.318 297.518 456.971 297.872L453.182 301.738C453.364 301.692 453.552 301.658 453.746 301.635C453.946 301.612 454.145 301.601 454.345 301.601H459.571ZM470.288 296.315C470.288 297.376 470.174 298.294 469.946 299.069C469.718 299.845 469.408 300.486 469.014 300.994C468.621 301.501 468.159 301.88 467.629 302.131C467.104 302.376 466.542 302.499 465.944 302.499C465.345 302.499 464.783 302.376 464.259 302.131C463.734 301.88 463.275 301.501 462.882 300.994C462.488 300.486 462.178 299.845 461.95 299.069C461.727 298.294 461.616 297.376 461.616 296.315C461.616 295.255 461.727 294.337 461.95 293.561C462.178 292.786 462.488 292.144 462.882 291.637C463.275 291.13 463.734 290.753 464.259 290.508C464.783 290.257 465.345 290.132 465.944 290.132C466.542 290.132 467.104 290.257 467.629 290.508C468.159 290.753 468.621 291.13 469.014 291.637C469.408 292.144 469.718 292.786 469.946 293.561C470.174 294.337 470.288 295.255 470.288 296.315ZM469.433 296.315C469.433 295.335 469.339 294.496 469.151 293.801C468.963 293.105 468.709 292.538 468.39 292.099C468.076 291.654 467.706 291.329 467.278 291.124C466.856 290.919 466.411 290.816 465.944 290.816C465.476 290.816 465.031 290.919 464.609 291.124C464.188 291.329 463.817 291.654 463.498 292.099C463.178 292.538 462.925 293.105 462.736 293.801C462.548 294.496 462.454 295.335 462.454 296.315C462.454 297.302 462.548 298.143 462.736 298.838C462.925 299.528 463.178 300.096 463.498 300.54C463.817 300.979 464.188 301.302 464.609 301.507C465.031 301.706 465.476 301.806 465.944 301.806C466.411 301.806 466.856 301.706 467.278 301.507C467.706 301.302 468.076 300.979 468.39 300.54C468.709 300.096 468.963 299.528 469.151 298.838C469.339 298.143 469.433 297.302 469.433 296.315Z" fill="#333333"/>
<circle cx="438.58" cy="119.305" r="4.98909" fill="#333333" stroke="#333333" stroke-width="1.42545"/>
<path d="M513.527 295.992C513.527 297.052 513.413 297.97 513.185 298.746C512.957 299.521 512.646 300.162 512.253 300.67C511.859 301.177 511.398 301.557 510.867 301.807C510.343 302.053 509.781 302.175 509.182 302.175C508.584 302.175 508.022 302.053 507.497 301.807C506.973 301.557 506.514 301.177 506.12 300.67C505.727 300.162 505.416 299.521 505.188 298.746C504.966 297.97 504.855 297.052 504.855 295.992C504.855 294.931 504.966 294.013 505.188 293.238C505.416 292.462 505.727 291.821 506.12 291.313C506.514 290.806 506.973 290.429 507.497 290.184C508.022 289.933 508.584 289.808 509.182 289.808C509.781 289.808 510.343 289.933 510.867 290.184C511.398 290.429 511.859 290.806 512.253 291.313C512.646 291.821 512.957 292.462 513.185 293.238C513.413 294.013 513.527 294.931 513.527 295.992ZM512.672 295.992C512.672 295.011 512.578 294.173 512.39 293.477C512.201 292.781 511.948 292.214 511.628 291.775C511.315 291.33 510.944 291.005 510.517 290.8C510.095 290.595 509.65 290.492 509.182 290.492C508.715 290.492 508.27 290.595 507.848 290.8C507.426 291.005 507.056 291.33 506.736 291.775C506.417 292.214 506.163 292.781 505.975 293.477C505.787 294.173 505.693 295.011 505.693 295.992C505.693 296.978 505.787 297.819 505.975 298.515C506.163 299.205 506.417 299.772 506.736 300.217C507.056 300.656 507.426 300.978 507.848 301.183C508.27 301.383 508.715 301.482 509.182 301.482C509.65 301.482 510.095 301.383 510.517 301.183C510.944 300.978 511.315 300.656 511.628 300.217C511.948 299.772 512.201 299.205 512.39 298.515C512.578 297.819 512.672 296.978 512.672 295.992ZM522.68 301.414V302.047H516.436V301.414H519.216V291.595C519.216 291.402 519.225 291.196 519.242 290.98L516.573 293.349C516.493 293.417 516.414 293.443 516.334 293.426C516.254 293.409 516.191 293.374 516.146 293.323L515.898 292.981L519.396 289.893H520.037V301.414H522.68ZM525.281 301.388C525.281 301.28 525.301 301.177 525.341 301.08C525.381 300.983 525.435 300.901 525.504 300.832C525.578 300.758 525.66 300.701 525.752 300.661C525.849 300.616 525.954 300.593 526.068 300.593C526.176 300.593 526.279 300.616 526.376 300.661C526.473 300.701 526.556 300.758 526.624 300.832C526.698 300.901 526.755 300.983 526.795 301.08C526.841 301.177 526.864 301.28 526.864 301.388C526.864 301.502 526.841 301.608 526.795 301.705C526.755 301.796 526.698 301.879 526.624 301.953C526.556 302.021 526.473 302.075 526.376 302.115C526.279 302.155 526.176 302.175 526.068 302.175C525.846 302.175 525.658 302.101 525.504 301.953C525.355 301.799 525.281 301.611 525.281 301.388ZM537.365 295.992C537.365 297.052 537.25 297.97 537.022 298.746C536.794 299.521 536.484 300.162 536.09 300.67C535.697 301.177 535.235 301.557 534.705 301.807C534.18 302.053 533.618 302.175 533.02 302.175C532.421 302.175 531.859 302.053 531.335 301.807C530.81 301.557 530.351 301.177 529.958 300.67C529.564 300.162 529.254 299.521 529.026 298.746C528.803 297.97 528.692 297.052 528.692 295.992C528.692 294.931 528.803 294.013 529.026 293.238C529.254 292.462 529.564 291.821 529.958 291.313C530.351 290.806 530.81 290.429 531.335 290.184C531.859 289.933 532.421 289.808 533.02 289.808C533.618 289.808 534.18 289.933 534.705 290.184C535.235 290.429 535.697 290.806 536.09 291.313C536.484 291.821 536.794 292.462 537.022 293.238C537.25 294.013 537.365 294.931 537.365 295.992ZM536.509 295.992C536.509 295.011 536.415 294.173 536.227 293.477C536.039 292.781 535.785 292.214 535.466 291.775C535.152 291.33 534.782 291.005 534.354 290.8C533.932 290.595 533.487 290.492 533.02 290.492C532.552 290.492 532.107 290.595 531.686 290.8C531.264 291.005 530.893 291.33 530.574 291.775C530.254 292.214 530.001 292.781 529.812 293.477C529.624 294.173 529.53 295.011 529.53 295.992C529.53 296.978 529.624 297.819 529.812 298.515C530.001 299.205 530.254 299.772 530.574 300.217C530.893 300.656 531.264 300.978 531.686 301.183C532.107 301.383 532.552 301.482 533.02 301.482C533.487 301.482 533.932 301.383 534.354 301.183C534.782 300.978 535.152 300.656 535.466 300.217C535.785 299.772 536.039 299.205 536.227 298.515C536.415 297.819 536.509 296.978 536.509 295.992ZM544.43 297.924V291.587C544.43 291.49 544.433 291.384 544.439 291.27C544.45 291.156 544.462 291.04 544.473 290.92L539.239 297.924H544.43ZM547.364 297.924V298.369C547.364 298.432 547.344 298.483 547.304 298.523C547.27 298.557 547.213 298.574 547.133 298.574H545.149V302.047H544.43V298.574H538.709C538.623 298.574 538.558 298.557 538.512 298.523C538.466 298.483 538.435 298.432 538.418 298.369L538.341 297.967L544.422 289.928H545.149V297.924H547.364ZM549.119 301.388C549.119 301.28 549.139 301.177 549.179 301.08C549.218 300.983 549.273 300.901 549.341 300.832C549.415 300.758 549.498 300.701 549.589 300.661C549.686 300.616 549.791 300.593 549.905 300.593C550.014 300.593 550.116 300.616 550.213 300.661C550.31 300.701 550.393 300.758 550.461 300.832C550.536 300.901 550.593 300.983 550.632 301.08C550.678 301.177 550.701 301.28 550.701 301.388C550.701 301.502 550.678 301.608 550.632 301.705C550.593 301.796 550.536 301.879 550.461 301.953C550.393 302.021 550.31 302.075 550.213 302.115C550.116 302.155 550.014 302.175 549.905 302.175C549.683 302.175 549.495 302.101 549.341 301.953C549.193 301.799 549.119 301.611 549.119 301.388ZM560.407 301.277C560.498 301.277 560.569 301.306 560.62 301.363C560.672 301.414 560.697 301.482 560.697 301.568V302.047H552.889V301.756C552.889 301.693 552.903 301.631 552.931 301.568C552.966 301.5 553.008 301.442 553.06 301.397L557.191 297.215C557.533 296.867 557.849 296.53 558.14 296.205C558.431 295.88 558.682 295.553 558.893 295.222C559.109 294.891 559.278 294.552 559.397 294.204C559.517 293.856 559.577 293.486 559.577 293.092C559.577 292.647 559.503 292.263 559.355 291.938C559.206 291.607 559.01 291.336 558.764 291.125C558.519 290.914 558.234 290.757 557.909 290.655C557.584 290.552 557.248 290.501 556.9 290.501C556.518 290.501 556.164 290.561 555.839 290.68C555.52 290.794 555.235 290.957 554.984 291.168C554.739 291.373 554.534 291.621 554.368 291.912C554.209 292.197 554.097 292.511 554.035 292.853C553.995 292.978 553.941 293.061 553.872 293.101C553.81 293.141 553.721 293.155 553.607 293.143L553.188 293.075C553.262 292.556 553.405 292.094 553.616 291.69C553.827 291.285 554.095 290.943 554.42 290.663C554.745 290.384 555.121 290.173 555.549 290.03C555.976 289.882 556.438 289.808 556.934 289.808C557.396 289.808 557.835 289.876 558.251 290.013C558.673 290.144 559.044 290.347 559.363 290.62C559.688 290.888 559.945 291.228 560.133 291.638C560.321 292.043 560.415 292.519 560.415 293.067C560.415 293.523 560.344 293.947 560.201 294.341C560.064 294.729 559.876 295.102 559.637 295.461C559.397 295.82 559.118 296.171 558.799 296.513C558.485 296.85 558.154 297.195 557.806 297.548L554.018 301.414C554.2 301.368 554.388 301.334 554.582 301.311C554.782 301.289 554.981 301.277 555.181 301.277H560.407ZM571.124 295.992C571.124 297.052 571.01 297.97 570.782 298.746C570.554 299.521 570.243 300.162 569.85 300.67C569.457 301.177 568.995 301.557 568.465 301.807C567.94 302.053 567.378 302.175 566.78 302.175C566.181 302.175 565.619 302.053 565.095 301.807C564.57 301.557 564.111 301.177 563.718 300.67C563.324 300.162 563.014 299.521 562.786 298.746C562.563 297.97 562.452 297.052 562.452 295.992C562.452 294.931 562.563 294.013 562.786 293.238C563.014 292.462 563.324 291.821 563.718 291.313C564.111 290.806 564.57 290.429 565.095 290.184C565.619 289.933 566.181 289.808 566.78 289.808C567.378 289.808 567.94 289.933 568.465 290.184C568.995 290.429 569.457 290.806 569.85 291.313C570.243 291.821 570.554 292.462 570.782 293.238C571.01 294.013 571.124 294.931 571.124 295.992ZM570.269 295.992C570.269 295.011 570.175 294.173 569.987 293.477C569.799 292.781 569.545 292.214 569.226 291.775C568.912 291.33 568.541 291.005 568.114 290.8C567.692 290.595 567.247 290.492 566.78 290.492C566.312 290.492 565.867 290.595 565.445 290.8C565.023 291.005 564.653 291.33 564.334 291.775C564.014 292.214 563.761 292.781 563.572 293.477C563.384 294.173 563.29 295.011 563.29 295.992C563.29 296.978 563.384 297.819 563.572 298.515C563.761 299.205 564.014 299.772 564.334 300.217C564.653 300.656 565.023 300.978 565.445 301.183C565.867 301.383 566.312 301.482 566.78 301.482C567.247 301.482 567.692 301.383 568.114 301.183C568.541 300.978 568.912 300.656 569.226 300.217C569.545 299.772 569.799 299.205 569.987 298.515C570.175 297.819 570.269 296.978 570.269 295.992Z" fill="#333333"/>
<circle cx="537.99" cy="151.767" r="4.98909" fill="#333333" stroke="#333333" stroke-width="1.42545"/>
<path d="M612.999 296.315C612.999 297.376 612.885 298.294 612.657 299.069C612.429 299.845 612.118 300.486 611.724 300.994C611.331 301.501 610.869 301.88 610.339 302.131C609.814 302.376 609.253 302.499 608.654 302.499C608.055 302.499 607.494 302.376 606.969 302.131C606.445 301.88 605.986 301.501 605.592 300.994C605.199 300.486 604.888 299.845 604.66 299.069C604.438 298.294 604.326 297.376 604.326 296.315C604.326 295.255 604.438 294.337 604.66 293.561C604.888 292.786 605.199 292.144 605.592 291.637C605.986 291.13 606.445 290.753 606.969 290.508C607.494 290.257 608.055 290.132 608.654 290.132C609.253 290.132 609.814 290.257 610.339 290.508C610.869 290.753 611.331 291.13 611.724 291.637C612.118 292.144 612.429 292.786 612.657 293.561C612.885 294.337 612.999 295.255 612.999 296.315ZM612.144 296.315C612.144 295.335 612.049 294.496 611.861 293.801C611.673 293.105 611.419 292.538 611.1 292.099C610.787 291.654 610.416 291.329 609.988 291.124C609.566 290.919 609.122 290.816 608.654 290.816C608.186 290.816 607.742 290.919 607.32 291.124C606.898 291.329 606.527 291.654 606.208 292.099C605.889 292.538 605.635 293.105 605.447 293.801C605.259 294.496 605.165 295.335 605.165 296.315C605.165 297.302 605.259 298.143 605.447 298.838C605.635 299.528 605.889 300.096 606.208 300.54C606.527 300.979 606.898 301.302 607.32 301.507C607.742 301.706 608.186 301.806 608.654 301.806C609.122 301.806 609.566 301.706 609.988 301.507C610.416 301.302 610.787 300.979 611.1 300.54C611.419 300.096 611.673 299.528 611.861 298.838C612.049 298.143 612.144 297.302 612.144 296.315ZM622.152 301.738V302.371H615.908V301.738H618.688V291.919C618.688 291.725 618.696 291.52 618.713 291.303L616.045 293.673C615.965 293.741 615.885 293.767 615.805 293.75C615.726 293.732 615.663 293.698 615.617 293.647L615.369 293.305L618.867 290.217H619.509V301.738H622.152ZM624.753 301.712C624.753 301.604 624.773 301.501 624.813 301.404C624.853 301.307 624.907 301.225 624.975 301.156C625.049 301.082 625.132 301.025 625.223 300.985C625.32 300.94 625.426 300.917 625.54 300.917C625.648 300.917 625.751 300.94 625.848 300.985C625.945 301.025 626.027 301.082 626.096 301.156C626.17 301.225 626.227 301.307 626.267 301.404C626.312 301.501 626.335 301.604 626.335 301.712C626.335 301.826 626.312 301.932 626.267 302.029C626.227 302.12 626.17 302.202 626.096 302.277C626.027 302.345 625.945 302.399 625.848 302.439C625.751 302.479 625.648 302.499 625.54 302.499C625.317 302.499 625.129 302.425 624.975 302.277C624.827 302.123 624.753 301.934 624.753 301.712ZM636.836 296.315C636.836 297.376 636.722 298.294 636.494 299.069C636.266 299.845 635.955 300.486 635.562 300.994C635.168 301.501 634.707 301.88 634.176 302.131C633.652 302.376 633.09 302.499 632.491 302.499C631.893 302.499 631.331 302.376 630.807 302.131C630.282 301.88 629.823 301.501 629.43 300.994C629.036 300.486 628.725 299.845 628.497 299.069C628.275 298.294 628.164 297.376 628.164 296.315C628.164 295.255 628.275 294.337 628.497 293.561C628.725 292.786 629.036 292.144 629.43 291.637C629.823 291.13 630.282 290.753 630.807 290.508C631.331 290.257 631.893 290.132 632.491 290.132C633.09 290.132 633.652 290.257 634.176 290.508C634.707 290.753 635.168 291.13 635.562 291.637C635.955 292.144 636.266 292.786 636.494 293.561C636.722 294.337 636.836 295.255 636.836 296.315ZM635.981 296.315C635.981 295.335 635.887 294.496 635.699 293.801C635.511 293.105 635.257 292.538 634.937 292.099C634.624 291.654 634.253 291.329 633.826 291.124C633.404 290.919 632.959 290.816 632.491 290.816C632.024 290.816 631.579 290.919 631.157 291.124C630.735 291.329 630.365 291.654 630.045 292.099C629.726 292.538 629.472 293.105 629.284 293.801C629.096 294.496 629.002 295.335 629.002 296.315C629.002 297.302 629.096 298.143 629.284 298.838C629.472 299.528 629.726 300.096 630.045 300.54C630.365 300.979 630.735 301.302 631.157 301.507C631.579 301.706 632.024 301.806 632.491 301.806C632.959 301.806 633.404 301.706 633.826 301.507C634.253 301.302 634.624 300.979 634.937 300.54C635.257 300.096 635.511 299.528 635.699 298.838C635.887 298.143 635.981 297.302 635.981 296.315ZM643.902 298.248V291.911C643.902 291.814 643.905 291.708 643.911 291.594C643.922 291.48 643.933 291.363 643.945 291.244L638.711 298.248H643.902ZM646.836 298.248V298.693C646.836 298.756 646.816 298.807 646.776 298.847C646.742 298.881 646.685 298.898 646.605 298.898H644.621V302.371H643.902V298.898H638.18C638.095 298.898 638.029 298.881 637.984 298.847C637.938 298.807 637.907 298.756 637.89 298.693L637.813 298.291L643.894 290.251H644.621V298.248H646.836ZM648.59 301.712C648.59 301.604 648.61 301.501 648.65 301.404C648.69 301.307 648.744 301.225 648.813 301.156C648.887 301.082 648.969 301.025 649.061 300.985C649.158 300.94 649.263 300.917 649.377 300.917C649.486 300.917 649.588 300.94 649.685 300.985C649.782 301.025 649.865 301.082 649.933 301.156C650.007 301.225 650.064 301.307 650.104 301.404C650.15 301.501 650.173 301.604 650.173 301.712C650.173 301.826 650.15 301.932 650.104 302.029C650.064 302.12 650.007 302.202 649.933 302.277C649.865 302.345 649.782 302.399 649.685 302.439C649.588 302.479 649.486 302.499 649.377 302.499C649.155 302.499 648.967 302.425 648.813 302.277C648.664 302.123 648.59 301.934 648.59 301.712ZM659.878 301.601C659.969 301.601 660.041 301.629 660.092 301.686C660.143 301.738 660.169 301.806 660.169 301.892V302.371H652.36V302.08C652.36 302.017 652.375 301.954 652.403 301.892C652.437 301.823 652.48 301.766 652.531 301.721L656.662 297.538C657.004 297.191 657.321 296.854 657.612 296.529C657.903 296.204 658.153 295.876 658.364 295.546C658.581 295.215 658.749 294.876 658.869 294.528C658.989 294.18 659.049 293.809 659.049 293.416C659.049 292.971 658.974 292.586 658.826 292.261C658.678 291.931 658.481 291.66 658.236 291.449C657.991 291.238 657.706 291.081 657.381 290.978C657.056 290.876 656.719 290.824 656.372 290.824C655.99 290.824 655.636 290.884 655.311 291.004C654.992 291.118 654.707 291.281 654.456 291.492C654.211 291.697 654.005 291.945 653.84 292.236C653.68 292.521 653.569 292.834 653.506 293.176C653.466 293.302 653.412 293.385 653.344 293.425C653.281 293.464 653.193 293.479 653.079 293.467L652.66 293.399C652.734 292.88 652.876 292.418 653.087 292.013C653.298 291.608 653.566 291.266 653.891 290.987C654.216 290.708 654.593 290.497 655.02 290.354C655.448 290.206 655.91 290.132 656.406 290.132C656.868 290.132 657.307 290.2 657.723 290.337C658.145 290.468 658.515 290.671 658.835 290.944C659.16 291.212 659.416 291.551 659.604 291.962C659.793 292.367 659.887 292.843 659.887 293.39C659.887 293.846 659.815 294.271 659.673 294.665C659.536 295.052 659.348 295.426 659.108 295.785C658.869 296.144 658.59 296.495 658.27 296.837C657.957 297.173 657.626 297.518 657.278 297.872L653.489 301.738C653.672 301.692 653.86 301.658 654.054 301.635C654.253 301.612 654.453 301.601 654.652 301.601H659.878ZM670.596 296.315C670.596 297.376 670.482 298.294 670.254 299.069C670.026 299.845 669.715 300.486 669.322 300.994C668.928 301.501 668.466 301.88 667.936 302.131C667.412 302.376 666.85 302.499 666.251 302.499C665.653 302.499 665.091 302.376 664.566 302.131C664.042 301.88 663.583 301.501 663.189 300.994C662.796 300.486 662.485 299.845 662.257 299.069C662.035 298.294 661.924 297.376 661.924 296.315C661.924 295.255 662.035 294.337 662.257 293.561C662.485 292.786 662.796 292.144 663.189 291.637C663.583 291.13 664.042 290.753 664.566 290.508C665.091 290.257 665.653 290.132 666.251 290.132C666.85 290.132 667.412 290.257 667.936 290.508C668.466 290.753 668.928 291.13 669.322 291.637C669.715 292.144 670.026 292.786 670.254 293.561C670.482 294.337 670.596 295.255 670.596 296.315ZM669.741 296.315C669.741 295.335 669.647 294.496 669.459 293.801C669.27 293.105 669.017 292.538 668.697 292.099C668.384 291.654 668.013 291.329 667.586 291.124C667.164 290.919 666.719 290.816 666.251 290.816C665.784 290.816 665.339 290.919 664.917 291.124C664.495 291.329 664.125 291.654 663.805 292.099C663.486 292.538 663.232 293.105 663.044 293.801C662.856 294.496 662.762 295.335 662.762 296.315C662.762 297.302 662.856 298.143 663.044 298.838C663.232 299.528 663.486 300.096 663.805 300.54C664.125 300.979 664.495 301.302 664.917 301.507C665.339 301.706 665.784 301.806 666.251 301.806C666.719 301.806 667.164 301.706 667.586 301.507C668.013 301.302 668.384 300.979 668.697 300.54C669.017 300.096 669.27 299.528 669.459 298.838C669.647 298.143 669.741 297.302 669.741 296.315Z" fill="#333333"/>
<circle cx="638.887" cy="119.305" r="4.98909" fill="#333333" stroke="#333333" stroke-width="1.42545"/>
<path d="M713.835 296.035C713.835 297.096 713.721 298.014 713.493 298.789C713.265 299.565 712.954 300.206 712.56 300.714C712.167 301.221 711.705 301.6 711.175 301.851C710.65 302.096 710.089 302.219 709.49 302.219C708.891 302.219 708.33 302.096 707.805 301.851C707.281 301.6 706.822 301.221 706.428 300.714C706.035 300.206 705.724 299.565 705.496 298.789C705.273 298.014 705.162 297.096 705.162 296.035C705.162 294.975 705.273 294.057 705.496 293.281C705.724 292.506 706.035 291.864 706.428 291.357C706.822 290.849 707.281 290.473 707.805 290.228C708.33 289.977 708.891 289.852 709.49 289.852C710.089 289.852 710.65 289.977 711.175 290.228C711.705 290.473 712.167 290.849 712.56 291.357C712.954 291.864 713.265 292.506 713.493 293.281C713.721 294.057 713.835 294.975 713.835 296.035ZM712.979 296.035C712.979 295.055 712.885 294.216 712.697 293.521C712.509 292.825 712.255 292.258 711.936 291.819C711.622 291.374 711.252 291.049 710.824 290.844C710.402 290.638 709.958 290.536 709.49 290.536C709.022 290.536 708.578 290.638 708.156 290.844C707.734 291.049 707.363 291.374 707.044 291.819C706.725 292.258 706.471 292.825 706.283 293.521C706.095 294.216 706 295.055 706 296.035C706 297.022 706.095 297.863 706.283 298.558C706.471 299.248 706.725 299.816 707.044 300.26C707.363 300.699 707.734 301.021 708.156 301.227C708.578 301.426 709.022 301.526 709.49 301.526C709.958 301.526 710.402 301.426 710.824 301.227C711.252 301.021 711.622 300.699 711.936 300.26C712.255 299.816 712.509 299.248 712.697 298.558C712.885 297.863 712.979 297.022 712.979 296.035ZM722.988 301.458V302.091H716.744V301.458H719.524V291.639C719.524 291.445 719.532 291.24 719.549 291.023L716.881 293.392C716.801 293.461 716.721 293.487 716.641 293.469C716.562 293.452 716.499 293.418 716.453 293.367L716.205 293.025L719.703 289.937H720.345V301.458H722.988ZM725.589 301.432C725.589 301.324 725.609 301.221 725.649 301.124C725.689 301.027 725.743 300.945 725.811 300.876C725.885 300.802 725.968 300.745 726.059 300.705C726.156 300.659 726.262 300.637 726.376 300.637C726.484 300.637 726.587 300.659 726.684 300.705C726.781 300.745 726.863 300.802 726.932 300.876C727.006 300.945 727.063 301.027 727.103 301.124C727.148 301.221 727.171 301.324 727.171 301.432C727.171 301.546 727.148 301.652 727.103 301.748C727.063 301.84 727.006 301.922 726.932 301.996C726.863 302.065 726.781 302.119 726.684 302.159C726.587 302.199 726.484 302.219 726.376 302.219C726.153 302.219 725.965 302.145 725.811 301.996C725.663 301.843 725.589 301.654 725.589 301.432ZM737.672 296.035C737.672 297.096 737.558 298.014 737.33 298.789C737.102 299.565 736.791 300.206 736.398 300.714C736.004 301.221 735.543 301.6 735.012 301.851C734.488 302.096 733.926 302.219 733.327 302.219C732.729 302.219 732.167 302.096 731.642 301.851C731.118 301.6 730.659 301.221 730.265 300.714C729.872 300.206 729.561 299.565 729.333 298.789C729.111 298.014 729 297.096 729 296.035C729 294.975 729.111 294.057 729.333 293.281C729.561 292.506 729.872 291.864 730.265 291.357C730.659 290.849 731.118 290.473 731.642 290.228C732.167 289.977 732.729 289.852 733.327 289.852C733.926 289.852 734.488 289.977 735.012 290.228C735.543 290.473 736.004 290.849 736.398 291.357C736.791 291.864 737.102 292.506 737.33 293.281C737.558 294.057 737.672 294.975 737.672 296.035ZM736.817 296.035C736.817 295.055 736.723 294.216 736.535 293.521C736.346 292.825 736.093 292.258 735.773 291.819C735.46 291.374 735.089 291.049 734.662 290.844C734.24 290.638 733.795 290.536 733.327 290.536C732.86 290.536 732.415 290.638 731.993 290.844C731.571 291.049 731.201 291.374 730.881 291.819C730.562 292.258 730.308 292.825 730.12 293.521C729.932 294.216 729.838 295.055 729.838 296.035C729.838 297.022 729.932 297.863 730.12 298.558C730.308 299.248 730.562 299.816 730.881 300.26C731.201 300.699 731.571 301.021 731.993 301.227C732.415 301.426 732.86 301.526 733.327 301.526C733.795 301.526 734.24 301.426 734.662 301.227C735.089 301.021 735.46 300.699 735.773 300.26C736.093 299.816 736.346 299.248 736.535 298.558C736.723 297.863 736.817 297.022 736.817 296.035ZM744.738 297.968V291.631C744.738 291.534 744.741 291.428 744.747 291.314C744.758 291.2 744.769 291.083 744.781 290.963L739.547 297.968H744.738ZM747.672 297.968V298.413C747.672 298.476 747.652 298.527 747.612 298.567C747.578 298.601 747.521 298.618 747.441 298.618H745.456V302.091H744.738V298.618H739.016C738.931 298.618 738.865 298.601 738.82 298.567C738.774 298.527 738.743 298.476 738.725 298.413L738.648 298.011L744.729 289.971H745.456V297.968H747.672ZM749.426 301.432C749.426 301.324 749.446 301.221 749.486 301.124C749.526 301.027 749.58 300.945 749.649 300.876C749.723 300.802 749.805 300.745 749.897 300.705C749.994 300.659 750.099 300.637 750.213 300.637C750.321 300.637 750.424 300.659 750.521 300.705C750.618 300.745 750.701 300.802 750.769 300.876C750.843 300.945 750.9 301.027 750.94 301.124C750.986 301.221 751.009 301.324 751.009 301.432C751.009 301.546 750.986 301.652 750.94 301.748C750.9 301.84 750.843 301.922 750.769 301.996C750.701 302.065 750.618 302.119 750.521 302.159C750.424 302.199 750.321 302.219 750.213 302.219C749.991 302.219 749.803 302.145 749.649 301.996C749.5 301.843 749.426 301.654 749.426 301.432ZM760.714 301.321C760.805 301.321 760.877 301.349 760.928 301.406C760.979 301.458 761.005 301.526 761.005 301.612V302.091H753.196V301.8C753.196 301.737 753.211 301.674 753.239 301.612C753.273 301.543 753.316 301.486 753.367 301.441L757.498 297.258C757.84 296.91 758.157 296.574 758.448 296.249C758.738 295.924 758.989 295.596 759.2 295.265C759.417 294.935 759.585 294.596 759.705 294.248C759.825 293.9 759.885 293.529 759.885 293.136C759.885 292.691 759.81 292.306 759.662 291.981C759.514 291.651 759.317 291.38 759.072 291.169C758.827 290.958 758.542 290.801 758.217 290.698C757.892 290.596 757.555 290.544 757.208 290.544C756.825 290.544 756.472 290.604 756.147 290.724C755.828 290.838 755.543 291.001 755.292 291.212C755.047 291.417 754.841 291.665 754.676 291.956C754.516 292.241 754.405 292.554 754.342 292.896C754.302 293.022 754.248 293.105 754.18 293.144C754.117 293.184 754.029 293.199 753.915 293.187L753.496 293.119C753.57 292.6 753.712 292.138 753.923 291.733C754.134 291.328 754.402 290.986 754.727 290.707C755.052 290.428 755.429 290.217 755.856 290.074C756.284 289.926 756.746 289.852 757.242 289.852C757.704 289.852 758.143 289.92 758.559 290.057C758.981 290.188 759.351 290.39 759.671 290.664C759.996 290.932 760.252 291.271 760.44 291.682C760.629 292.087 760.723 292.563 760.723 293.11C760.723 293.566 760.651 293.991 760.509 294.385C760.372 294.772 760.184 295.146 759.944 295.505C759.705 295.864 759.426 296.215 759.106 296.557C758.793 296.893 758.462 297.238 758.114 297.592L754.325 301.458C754.508 301.412 754.696 301.378 754.89 301.355C755.089 301.332 755.289 301.321 755.488 301.321H760.714ZM771.432 296.035C771.432 297.096 771.318 298.014 771.09 298.789C770.862 299.565 770.551 300.206 770.158 300.714C769.764 301.221 769.302 301.6 768.772 301.851C768.248 302.096 767.686 302.219 767.087 302.219C766.489 302.219 765.927 302.096 765.402 301.851C764.878 301.6 764.419 301.221 764.025 300.714C763.632 300.206 763.321 299.565 763.093 298.789C762.871 298.014 762.76 297.096 762.76 296.035C762.76 294.975 762.871 294.057 763.093 293.281C763.321 292.506 763.632 291.864 764.025 291.357C764.419 290.849 764.878 290.473 765.402 290.228C765.927 289.977 766.489 289.852 767.087 289.852C767.686 289.852 768.248 289.977 768.772 290.228C769.302 290.473 769.764 290.849 770.158 291.357C770.551 291.864 770.862 292.506 771.09 293.281C771.318 294.057 771.432 294.975 771.432 296.035ZM770.577 296.035C770.577 295.055 770.483 294.216 770.295 293.521C770.106 292.825 769.853 292.258 769.533 291.819C769.22 291.374 768.849 291.049 768.421 290.844C768 290.638 767.555 290.536 767.087 290.536C766.62 290.536 766.175 290.638 765.753 290.844C765.331 291.049 764.96 291.374 764.641 291.819C764.322 292.258 764.068 292.825 763.88 293.521C763.692 294.216 763.598 295.055 763.598 296.035C763.598 297.022 763.692 297.863 763.88 298.558C764.068 299.248 764.322 299.816 764.641 300.26C764.96 300.699 765.331 301.021 765.753 301.227C766.175 301.426 766.62 301.526 767.087 301.526C767.555 301.526 768 301.426 768.421 301.227C768.849 301.021 769.22 300.699 769.533 300.26C769.853 299.816 770.106 299.248 770.295 298.558C770.483 297.863 770.577 297.022 770.577 296.035Z" fill="#333333"/>
<circle cx="739.723" cy="84.8142" r="4.98909" fill="#333333" stroke="#333333" stroke-width="1.42545"/>
<path d="M154.314 89.6985V392V259.109H823.643" stroke="#495A63" stroke-width="1.42545"/>
</g>
<defs>
<clipPath id="clip0">
<rect width="977" height="392" fill="white"/>
</clipPath>
</defs>
</svg>
