<svg width="93" height="40" viewBox="0 0 93 40" fill="none" xmlns="http://www.w3.org/2000/svg">
<path d="M17.7559 18.7212V23.261C16.2825 24.0375 14.6398 24.4258 12.8279 24.4258C9.92087 24.4258 7.49171 23.4999 5.54042 21.6482C3.40993 19.5973 2.34469 17.0587 2.34469 14.0322C2.34469 10.8066 3.40993 8.20818 5.54042 6.23698C7.41207 4.48481 9.85118 3.60872 12.8578 3.60872C14.6099 3.60872 16.2426 4.01689 17.7559 4.83325V9.37298C16.4617 7.87965 14.8588 7.13298 12.9474 7.13298C10.9961 7.13298 9.40318 7.81992 8.16869 9.19378C6.95411 10.5477 6.34682 12.1804 6.34682 14.0919C6.34682 16.1826 7.0238 17.8452 8.37776 19.0797C9.73171 20.2942 11.3047 20.9015 13.0967 20.9015C14.9683 20.9015 16.5214 20.1748 17.7559 18.7212ZM30.7036 12.7181V11.0455H34.3473V23.9778H30.7036V22.3052C29.7279 23.699 28.4038 24.3959 26.7313 24.3959C24.78 24.3959 23.1871 23.7289 21.9526 22.3948C20.738 21.0608 20.1308 19.4281 20.1308 17.4967C20.1308 15.5454 20.7281 13.9127 21.9228 12.5986C23.1174 11.2844 24.6605 10.6274 26.5521 10.6274C28.4237 10.6274 29.8076 11.3243 30.7036 12.7181ZM30.0465 14.8983C29.3695 14.2014 28.5133 13.853 27.478 13.853C26.4426 13.853 25.5864 14.2014 24.9094 14.8983C24.2324 15.5952 23.894 16.4613 23.894 17.4967C23.894 18.5321 24.2324 19.4082 24.9094 20.125C25.5864 20.8219 26.4426 21.1703 27.478 21.1703C28.5133 21.1703 29.3695 20.8219 30.0465 20.125C30.7235 19.4082 31.062 18.5321 31.062 17.4967C31.062 16.4613 30.7235 15.5952 30.0465 14.8983ZM37.8212 23.9778V11.0455H41.4649V12.9868C41.9029 12.1506 42.4405 11.5532 43.0777 11.1948C43.675 10.8165 44.3918 10.6274 45.2281 10.6274C45.706 10.6274 46.2236 10.7269 46.7812 10.9261L46.3033 14.3309C45.8453 14.0123 45.2779 13.853 44.6009 13.853C43.5456 13.853 42.7392 14.2014 42.1817 14.8983C41.7038 15.4956 41.4649 16.4514 41.4649 17.7655V23.9778H37.8212Z" fill="#383741"/>
<path d="M59.2162 16.6605V13.3154H68.3554V13.8231C68.3554 16.5509 67.7481 18.7909 66.5335 20.5431C64.7415 23.1316 62.1033 24.4258 58.6189 24.4258C55.5326 24.4258 53.0139 23.47 51.0626 21.5586C49.1312 19.6272 48.1655 17.1184 48.1655 14.0322C48.1655 10.946 49.1511 8.43716 51.1223 6.50578C53.1134 4.57441 55.6521 3.60872 58.7383 3.60872C60.0525 3.60872 61.2471 3.78792 62.3223 4.14632C63.3975 4.50472 64.2736 4.98258 64.9506 5.57992C65.6276 6.17725 66.1253 6.67503 66.4439 7.07325C66.7625 7.45156 67.0413 7.85974 67.2802 8.29778L63.9053 10.1197C63.746 9.86081 63.5568 9.60196 63.3378 9.34312C63.1387 9.06436 62.8301 8.74578 62.4119 8.38738C61.9938 8.00907 61.4562 7.71041 60.7991 7.49138C60.162 7.25245 59.4651 7.13298 58.7085 7.13298C56.7771 7.13298 55.2041 7.80996 53.9895 9.16392C52.7749 10.498 52.1677 12.1406 52.1677 14.0919C52.1677 15.864 52.7152 17.4469 53.8103 18.8407C54.9054 20.2146 56.5282 20.9015 58.6786 20.9015C60.1719 20.9015 61.4363 20.5531 62.4717 19.8562C63.5269 19.1593 64.1541 18.0941 64.3533 16.6605H59.2162ZM73.9307 6.53565C75.9218 4.58436 78.4803 3.60872 81.6064 3.60872C84.7324 3.60872 87.2811 4.58436 89.2523 6.53565C91.2434 8.48694 92.2389 10.9858 92.2389 14.0322C92.2389 17.0786 91.2434 19.5774 89.2523 21.5287C87.2811 23.4601 84.7324 24.4258 81.6064 24.4258C78.4803 24.4258 75.9218 23.4601 73.9307 21.5287C71.9595 19.5774 70.9739 17.0786 70.9739 14.0322C70.9739 10.9858 71.9595 8.48694 73.9307 6.53565ZM76.8277 18.99C78.0622 20.2644 79.6551 20.9015 81.6064 20.9015C83.5577 20.9015 85.1506 20.2644 86.3851 18.99C87.6195 17.6958 88.2368 16.0432 88.2368 14.0322C88.2368 12.0212 87.6096 10.3685 86.3552 9.07432C85.1207 7.78009 83.5378 7.13298 81.6064 7.13298C79.675 7.13298 78.0821 7.78009 76.8277 9.07432C75.5932 10.3685 74.976 12.0212 74.976 14.0322C74.976 16.0432 75.5932 17.6958 76.8277 18.99Z" fill="#FFDB4D"/>
<path d="M39.639 29.6423H36.951V39.5481H35.7231V29.6423H33.0351V28.4808H39.639V29.6423ZM47.8361 39.5481L46.5419 36.4287H41.8296L40.5022 39.5481H39.1416L44.2355 27.9499L49.1967 39.5481H47.8361ZM42.3108 35.2672H46.0607L44.2023 30.837L42.3108 35.2672ZM49.5629 39.5481L52.8316 33.8237L49.8616 28.4808H51.2553L53.5451 32.6456L55.9013 28.4808H57.295L54.2586 33.8237L57.461 39.5481H56.0672L53.5285 35.0017L50.9567 39.5481H49.5629ZM59.1187 28.4808H60.3465V39.5481H59.1187V28.4808Z" fill="#383741"/>
</svg>
