<svg width="32" height="32" viewBox="0 0 32 32" fill="none" xmlns="http://www.w3.org/2000/svg">
<g clip-path="url(#clip0)">
<path d="M30.9531 16.8885V8.95595C30.9531 5.19551 27.8937 2.13614 24.1332 2.13614C20.9921 2.13614 18.3408 4.27089 17.5524 7.16564C16.3884 6.99351 15.1791 7.0167 14.0266 7.23626C13.7745 7.28426 13.6091 7.52751 13.6571 7.77964C13.7039 8.03326 13.9545 8.19789 14.2004 8.14914C15.2358 7.95201 16.3226 7.92864 17.3697 8.07826C17.3327 8.3657 17.3134 8.65864 17.3134 8.95601V11.8653C17.2686 11.8633 14.8216 11.8618 14.8216 11.8618C13.2987 11.8618 12.0253 12.9491 11.7361 14.3881C11.509 14.2907 11.2764 14.2062 11.0399 14.135V13.4886C11.4956 12.9777 11.8326 12.3683 12.0211 11.6996C12.4761 11.47 12.937 10.9673 13.2098 10.388C13.5925 9.59989 13.467 8.80151 12.6833 8.42608C12.52 8.3492 12.3547 8.30558 12.1922 8.29495V6.32658C12.1922 4.59114 10.7803 3.17926 9.04488 3.17926H6.68831C4.95288 3.17926 3.541 4.59114 3.541 6.32658V8.29495C3.37844 8.30551 3.21312 8.34914 3.04988 8.42608C2.26606 8.80176 2.14069 9.59964 2.52331 10.388C2.79606 10.9672 3.25681 11.4698 3.71206 11.6996C3.90062 12.3683 4.23756 12.9778 4.69331 13.4886V14.135C1.91831 14.9685 0 17.5318 0 20.4513C0 20.8202 0.300125 21.1203 0.669 21.1203H6.14144C6.76669 22.8419 7.82888 24.3646 9.23306 25.5508C8.53419 26.605 8.13331 27.8632 8.13331 29.1948C8.13331 29.5637 8.43344 29.8638 8.80231 29.8638H23.1977C23.5666 29.8638 23.8667 29.5636 23.8667 29.1948C23.8667 26.2755 21.9482 23.712 19.1733 22.8785V22.171C19.4549 21.8553 19.6915 21.5022 19.8752 21.1203H24.8652C24.5095 22.0012 24.0247 22.8216 23.4191 23.5661C23.2572 23.7652 23.2873 24.0578 23.4863 24.2198C23.5724 24.2899 23.6762 24.324 23.7792 24.324C23.9143 24.324 24.0481 24.2655 24.1399 24.1526C24.8835 23.2386 25.4606 22.2197 25.8596 21.1203H31.3309C31.6998 21.1203 31.9999 20.8202 31.9999 20.4513C32 19.1545 31.6195 17.9261 30.9531 16.8885ZM18.2428 8.95595C18.2428 5.70795 20.8853 3.06545 24.1333 3.06545C27.3814 3.06545 30.0238 5.70789 30.0238 8.95595V15.7458C29.2777 15.0116 28.3531 14.45 27.3066 14.1355V13.25C28.041 12.4257 28.4589 11.3529 28.4589 10.2209V8.01426C28.4589 6.97039 27.6096 6.12108 26.5657 6.12108H21.6787C20.6348 6.12108 19.7855 6.97039 19.7855 8.01426V10.2209C19.7855 11.3644 20.2119 12.4476 20.9601 13.2751V14.1345C20.7237 14.2057 20.4911 14.2905 20.2638 14.388C20.0456 13.302 19.2666 12.4166 18.2429 12.0475V8.95595H18.2428ZM25.9258 13.2313L24.8005 13.9876C24.3885 14.2646 23.8559 14.2646 23.4438 13.9876L22.3186 13.2313C21.3143 12.5563 20.7148 11.431 20.7148 10.2209V8.01426C20.7148 7.48276 21.1472 7.05033 21.6787 7.05033H26.5657C27.0972 7.05033 27.5297 7.4827 27.5297 8.01426V10.2209C27.5296 11.4309 26.9301 12.5563 25.9258 13.2313ZM21.8894 14.0625L22.9254 14.7589C23.2889 15.0032 23.7056 15.1253 24.1221 15.1253C24.5387 15.1253 24.9554 15.0032 25.3188 14.7589L26.3773 14.0475V14.7794C26.3773 16.0167 25.3706 17.0233 24.1332 17.0233C22.8959 17.0233 21.8893 16.0167 21.8893 14.7794V14.0625H21.8894ZM19.674 19.5791C19.4844 19.6439 19.3427 19.7999 19.2949 19.997C19.0818 20.8783 18.5501 21.6423 17.7977 22.148L16.6756 22.9021C16.2652 23.1779 15.7348 23.1779 15.3243 22.9021L14.2023 22.148C13.45 21.6423 12.9183 20.8784 12.7051 19.9966C12.6573 19.7998 12.5155 19.6438 12.3261 19.5791C12.0902 19.4985 11.7084 19.1415 11.4974 18.6745C11.2421 18.1098 11.6743 17.8077 11.8897 17.9471C12.0322 18.0393 12.2142 18.0439 12.3627 17.9622C12.5113 17.8806 12.6037 17.7245 12.6037 17.555V16.3844C12.6037 15.7866 13.0901 15.3002 13.6879 15.3002H18.3121C18.9099 15.3002 19.3962 15.7866 19.3962 16.3844V17.5549C19.3962 17.7244 19.4886 17.8805 19.6373 17.9621C19.7858 18.0438 19.9671 18.038 20.1102 17.947C20.3923 17.8286 20.8354 17.9993 20.5026 18.6744C20.2842 19.1381 19.9098 19.4985 19.674 19.5791ZM13.7561 22.9676L14.806 23.6734C15.1686 23.9171 15.5844 24.039 16 24.039C16.4157 24.039 16.8314 23.9171 17.1941 23.6734L18.244 22.9677V23.5229C18.244 24.7602 17.2374 25.7668 16.0001 25.7668C14.7628 25.7668 13.7561 24.7602 13.7561 23.5229V22.9676ZM14.8217 12.7911H17.1782C18.2869 12.7911 19.2082 13.6088 19.3708 14.6728C19.0629 14.4817 18.7003 14.371 18.3121 14.371H13.6879C13.2997 14.371 12.937 14.4816 12.6292 14.6728C12.7917 13.6088 13.7131 12.7911 14.8217 12.7911ZM5.62275 14.2853L6.67269 14.991C7.03538 15.2348 7.451 15.3567 7.86669 15.3567C8.28231 15.3566 8.69812 15.2348 9.06069 14.991L10.1107 14.2853V14.8405C10.1107 16.0778 9.104 17.0845 7.86669 17.0845C6.62937 17.0845 5.62275 16.0778 5.62275 14.8405V14.2853ZM6.68844 4.10864H9.045C10.1537 4.10864 11.0749 4.92633 11.2375 5.99026C10.9297 5.79914 10.5669 5.68845 10.1788 5.68845H5.55463C5.16644 5.68845 4.80375 5.79914 4.49594 5.99026C4.6585 4.92633 5.57981 4.10864 6.68844 4.10864ZM4.19294 10.8968C3.957 10.8161 3.5825 10.4556 3.36419 9.99214C3.25869 9.76808 3.22037 9.57764 3.25625 9.45576C3.24312 9.32783 3.54113 9.07226 3.7565 9.26464C3.883 9.37764 4.08087 9.36133 4.2295 9.27983C4.37806 9.1982 4.4705 9.04214 4.4705 8.87251V7.70195C4.4705 7.10414 4.95687 6.61776 5.55469 6.61776H10.1788C10.7766 6.61776 11.263 7.10414 11.263 7.70195V8.87251C11.263 9.04208 11.3554 9.1982 11.504 9.27983C11.6526 9.36133 11.8596 9.38708 11.977 9.26464C12.1392 9.09545 12.4362 9.2697 12.4773 9.45576C12.5046 9.57983 12.4748 9.76808 12.3693 9.99214C12.151 10.4557 11.7765 10.8161 11.541 10.8966C11.3511 10.9614 11.2094 11.1176 11.1616 11.3146C10.9486 12.196 10.4168 12.9598 9.66444 13.4656L8.54237 14.2197C8.132 14.4955 7.60162 14.4956 7.19112 14.2197L6.06913 13.4656C5.31675 12.9598 4.785 12.1959 4.57181 11.3145C4.52419 11.1176 4.3825 10.9615 4.19294 10.8968ZM4.70556 15.1077C4.84181 16.7327 6.20706 18.0138 7.86669 18.0138C9.52631 18.0138 10.8915 16.7329 11.0279 15.108C11.2488 15.1862 11.4648 15.2786 11.6744 15.3837V16.9775C11.5118 16.988 11.3464 17.0316 11.1833 17.1086C10.6093 17.3789 10.1696 18.0363 10.6567 19.0706C10.8691 19.5216 11.1958 19.9256 11.5449 20.1911H0.93525C1.04056 17.8815 2.54106 15.8712 4.70556 15.1077ZM7.13644 21.1203H12.1249C12.3086 21.5023 12.5451 21.8553 12.8267 22.171V22.8788C11.6301 23.2384 10.5928 23.9203 9.79981 24.814C8.6225 23.8103 7.71244 22.5459 7.13644 21.1203ZM22.9315 28.9345H9.06856C9.17412 26.6256 10.6774 24.6121 12.8435 23.8496C13.0076 25.4464 14.3606 26.6961 16 26.6961C17.6394 26.6961 18.9925 25.4463 19.1565 23.8494C21.3235 24.6117 22.8261 26.6235 22.9315 28.9345ZM20.4552 20.191C20.8042 19.9256 21.1309 19.5215 21.3433 19.0704C21.8304 18.0361 21.3907 17.3788 20.8167 17.1084C20.6534 17.0316 20.4882 16.988 20.3256 16.9773V15.3835C20.5367 15.2777 20.7544 15.185 20.9769 15.1065C21.1412 16.7031 22.4941 17.9526 24.1334 17.9526C25.7728 17.9526 27.1256 16.7031 27.2899 15.1065C29.4553 15.869 30.9592 17.8836 31.0649 20.191H20.4552Z" fill="#575757"/>
<path d="M6.27529 9.76104C6.57363 9.76104 6.81548 9.51919 6.81548 9.22085C6.81548 8.92251 6.57363 8.68066 6.27529 8.68066C5.97696 8.68066 5.73511 8.92251 5.73511 9.22085C5.73511 9.51919 5.97696 9.76104 6.27529 9.76104Z" fill="#575757"/>
<path d="M9.40774 9.76104C9.70608 9.76104 9.94793 9.51919 9.94793 9.22085C9.94793 8.92251 9.70608 8.68066 9.40774 8.68066C9.1094 8.68066 8.86755 8.92251 8.86755 9.22085C8.86755 9.51919 9.1094 9.76104 9.40774 9.76104Z" fill="#575757"/>
<path d="M6.6533 11.9187C6.94374 12.2082 7.38599 12.3743 7.86661 12.3743C8.3473 12.3743 8.78955 12.2082 9.07999 11.9186C9.26168 11.7374 9.26211 11.4432 9.08093 11.2615C8.89974 11.0797 8.60549 11.0793 8.4238 11.2605C8.33849 11.3456 8.14136 11.445 7.86661 11.445C7.59193 11.445 7.39474 11.3456 7.30943 11.2605C7.12768 11.0794 6.83349 11.0798 6.6523 11.2615C6.47111 11.4433 6.47161 11.7375 6.6533 11.9187Z" fill="#575757"/>
<path d="M14.4085 18.4434C14.7069 18.4434 14.9487 18.2016 14.9487 17.9033C14.9487 17.6049 14.7069 17.3631 14.4085 17.3631C14.1102 17.3631 13.8683 17.6049 13.8683 17.9033C13.8683 18.2016 14.1102 18.4434 14.4085 18.4434Z" fill="#575757"/>
<path d="M17.541 18.4434C17.8393 18.4434 18.0812 18.2016 18.0812 17.9033C18.0812 17.6049 17.8393 17.3631 17.541 17.3631C17.2426 17.3631 17.0008 17.6049 17.0008 17.9033C17.0008 18.2016 17.2426 18.4434 17.541 18.4434Z" fill="#575757"/>
<path d="M16.5571 19.9429C16.4717 20.028 16.2746 20.1274 15.9999 20.1274C15.7252 20.1274 15.528 20.0281 15.4427 19.9429C15.261 19.7618 14.9669 19.7622 14.7856 19.9439C14.6044 20.1257 14.6049 20.4199 14.7866 20.6011C15.077 20.8906 15.5193 21.0566 15.9999 21.0566C16.4805 21.0566 16.9227 20.8906 17.2132 20.6011C17.3949 20.4199 17.3954 20.1257 17.2142 19.9439C17.033 19.7622 16.7389 19.7616 16.5571 19.9429Z" fill="#575757"/>
<path d="M22.5418 9.69996C22.8401 9.69996 23.082 9.45811 23.082 9.15977C23.082 8.86143 22.8401 8.61958 22.5418 8.61958C22.2434 8.61958 22.0016 8.86143 22.0016 9.15977C22.0016 9.45811 22.2434 9.69996 22.5418 9.69996Z" fill="#575757"/>
<path d="M25.6742 9.69996C25.9726 9.69996 26.2144 9.45811 26.2144 9.15977C26.2144 8.86143 25.9726 8.61958 25.6742 8.61958C25.3759 8.61958 25.134 8.86143 25.134 9.15977C25.134 9.45811 25.3759 9.69996 25.6742 9.69996Z" fill="#575757"/>
<path d="M24.6905 11.1995C24.6052 11.2845 24.4081 11.3839 24.1333 11.3839C23.8586 11.3839 23.6615 11.2845 23.5762 11.1994C23.3944 11.0183 23.1002 11.0186 22.919 11.2004C22.7378 11.3821 22.7383 11.6763 22.92 11.8575C23.2105 12.1471 23.6527 12.3131 24.1333 12.3131C24.614 12.3131 25.0563 12.1471 25.3467 11.8575C25.5284 11.6763 25.5288 11.382 25.3476 11.2003C25.1665 11.0185 24.8722 11.0183 24.6905 11.1995Z" fill="#575757"/>
</g>
<defs>
<clipPath id="clip0">
<rect width="32" height="32" fill="white"/>
</clipPath>
</defs>
</svg>
