<svg width="32" height="32" viewBox="0 0 32 32" fill="none" xmlns="http://www.w3.org/2000/svg">
<path d="M13.7872 27.6346V19.4502C13.7872 19.1681 13.5587 18.9396 13.2766 18.9396H9.87233C9.59026 18.9396 9.36169 19.1681 9.36169 19.4502C9.36169 19.7323 9.59026 19.9609 9.87233 19.9609H12.7659V27.6346C11.7913 27.8658 11.0638 28.7429 11.0638 29.7872C11.0638 31.0074 12.0564 32 13.2766 32C14.4967 32 15.4894 31.0074 15.4894 29.7872C15.4894 28.7429 14.7619 27.8658 13.7872 27.6346ZM13.2766 30.9787C12.6196 30.9787 12.0851 30.4442 12.0851 29.7872C12.0851 29.1303 12.6196 28.5957 13.2766 28.5957C13.9335 28.5957 14.4681 29.1303 14.4681 29.7872C14.4681 30.4442 13.9335 30.9787 13.2766 30.9787Z" fill="#575757"/>
<path d="M19.2341 27.6346V19.4502C19.2341 19.1681 19.0055 18.9396 18.7234 18.9396H15.3192C15.0372 18.9396 14.8086 19.1681 14.8086 19.4502C14.8086 19.7323 15.0372 19.9609 15.3192 19.9609H18.2128V27.6346C17.2381 27.8658 16.5107 28.7429 16.5107 29.7872C16.5107 31.0074 17.5033 32 18.7234 32C19.9436 32 20.9362 31.0074 20.9362 29.7872C20.9362 28.7429 20.2087 27.8658 19.2341 27.6346ZM18.7234 30.9787C18.0665 30.9787 17.5319 30.4442 17.5319 29.7872C17.5319 29.1303 18.0665 28.5957 18.7234 28.5957C19.3804 28.5957 19.9149 29.1303 19.9149 29.7872C19.9149 30.4442 19.3804 30.9787 18.7234 30.9787Z" fill="#575757"/>
<path d="M27.9149 24.1702C26.8705 24.1702 25.9935 24.8977 25.7622 25.8723H24.6808V19.4502C24.6808 19.1681 24.4523 18.9396 24.1702 18.9396H20.7659C20.4839 18.9396 20.2553 19.1681 20.2553 19.4502C20.2553 19.7323 20.4839 19.9609 20.7659 19.9609H23.6596V26.383C23.6596 26.6651 23.8881 26.8936 24.1702 26.8936H25.7622C25.9935 27.8683 26.8705 28.5957 27.9149 28.5957C29.135 28.5957 30.1276 27.6031 30.1276 26.383C30.1276 25.1628 29.135 24.1702 27.9149 24.1702ZM27.9149 27.5745C27.2579 27.5745 26.7234 27.0399 26.7234 26.383C26.7234 25.726 27.2579 25.1915 27.9149 25.1915C28.5718 25.1915 29.1064 25.726 29.1064 26.383C29.1064 27.0399 28.5718 27.5745 27.9149 27.5745Z" fill="#575757"/>
<path d="M30.7841 10.9996C30.0959 10.1452 29.1611 9.5121 28.1211 9.18911C28.0039 6.77188 27.0011 4.51656 25.2724 2.80231C23.45 0.9952 21.033 0 18.4665 0C15.0962 0 11.9775 1.75741 10.2237 4.61528C9.79717 4.48082 9.35387 4.41294 8.90049 4.41294C6.81457 4.41294 5.0208 5.88534 4.58825 7.89243C1.90938 8.58737 0 11.029 0 13.8282C0 17.2097 2.75105 19.9608 6.13263 19.9608H7.31915V25.8723H6.23775C6.00654 24.8977 5.12946 24.1702 4.08511 24.1702C2.86495 24.1702 1.87234 25.1628 1.87234 26.383C1.87234 27.6031 2.86495 28.5957 4.08511 28.5957C5.12946 28.5957 6.00654 27.8683 6.23775 26.8936H7.82979C8.11186 26.8936 8.34043 26.6651 8.34043 26.383V19.4502C8.34043 19.1681 8.11186 18.9396 7.82979 18.9396H6.13263C3.31425 18.9396 1.02128 16.6466 1.02128 13.8282C1.02128 11.3959 2.7503 9.28769 5.13246 8.81525C5.34727 8.7727 5.51108 8.59786 5.53947 8.38066C5.75932 6.70094 7.20422 5.43428 8.90049 5.43428C9.36715 5.43428 9.81971 5.52776 10.2456 5.71207C10.487 5.81658 10.7681 5.72058 10.8953 5.49052C12.4193 2.73375 15.3204 1.02128 18.4665 1.02128C23.1905 1.02128 27.0683 4.86386 27.1109 9.5872C27.1131 9.82318 27.2766 10.0269 27.5065 10.0801C29.5509 10.5532 30.9788 12.3508 30.9788 14.4513C30.9788 16.9262 28.9654 18.9396 26.4906 18.9396H26.2128C25.9307 18.9396 25.7021 19.1681 25.7021 19.4502C25.7021 19.7323 25.9307 19.9608 26.2128 19.9608H26.4906C29.5284 19.9608 32 17.4893 32 14.4513C32 13.1989 31.5681 11.973 30.7841 10.9996ZM4.08511 27.5745C3.42815 27.5745 2.89362 27.0399 2.89362 26.383C2.89362 25.726 3.42815 25.1915 4.08511 25.1915C4.74206 25.1915 5.2766 25.726 5.2766 26.383C5.2766 27.0399 4.74206 27.5745 4.08511 27.5745Z" fill="#575757"/>
<path d="M24.8982 10.1177H24.9029C25.185 10.1152 25.4115 9.88449 25.409 9.60248C25.4013 8.76136 25.2426 7.93828 24.9371 7.15612C24.8344 6.89344 24.5383 6.7636 24.2756 6.86621C24.0129 6.96881 23.8831 7.26492 23.9857 7.52766C24.2459 8.1938 24.3811 8.89501 24.3876 9.61174C24.3903 9.89225 24.6183 10.1177 24.8982 10.1177Z" fill="#575757"/>
<path d="M23.0316 5.90681C23.1326 6.02909 23.2785 6.09227 23.4256 6.09227C23.5402 6.09227 23.6554 6.05394 23.7505 5.9753C23.9679 5.79569 23.9986 5.47385 23.819 5.25639C22.4893 3.64665 20.5383 2.72342 18.4665 2.72342C18.1844 2.72342 17.9558 2.95198 17.9558 3.23406C17.9558 3.51613 18.1844 3.7447 18.4665 3.7447C20.2326 3.7447 21.8965 4.53271 23.0316 5.90681Z" fill="#575757"/>
</svg>
