<svg width="32" height="32" viewBox="0 0 32 32" fill="none" xmlns="http://www.w3.org/2000/svg">
<g clip-path="url(#clip0)">
<path d="M31.7702 28.3667L29.0204 25.6167C28.8349 25.4312 28.5341 25.4312 28.3483 25.6167C28.1628 25.8022 28.1628 26.1033 28.3483 26.2888L30.7624 28.7026L28.612 30.8528L22.975 25.2158L25.1254 23.0657L26.9545 24.8948C27.1401 25.0806 27.4409 25.0806 27.6266 24.8948C27.8122 24.7092 27.8122 24.4084 27.6266 24.2229L25.4614 22.0576C25.3723 21.9685 25.2514 21.9185 25.1252 21.9185C24.9992 21.9185 24.8784 21.9685 24.7892 22.0576L24.6423 22.2046L22.1877 19.7495C25.8693 14.9331 25.5099 7.99707 21.1083 3.59546C16.3144 -1.19849 8.5141 -1.19849 3.7204 3.59546C-1.07355 8.38916 -1.07355 16.1895 3.7204 20.9834C6.11737 23.3804 9.26581 24.5789 12.4142 24.5789C14.9494 24.5789 17.4843 23.801 19.6274 22.2471L22.114 24.7332L21.967 24.8799C21.8779 24.969 21.8278 25.0898 21.8278 25.2161C21.8278 25.342 21.8779 25.4629 21.967 25.552L28.2758 31.8608C28.3686 31.9536 28.4904 32 28.612 32C28.7336 32 28.8552 31.9536 28.9479 31.8608L31.7702 29.0386C31.8593 28.9495 31.9094 28.8286 31.9094 28.7026C31.9094 28.5767 31.8593 28.4556 31.7702 28.3667ZM4.39227 20.3113C-0.0308228 15.8879 -0.0308228 8.69067 4.39227 4.26733C6.60394 2.05566 9.50922 0.949951 12.4142 0.949951C15.3195 0.949951 18.2245 2.05566 20.4362 4.26733C24.8596 8.69067 24.8596 15.8879 20.4362 20.3113C16.0129 24.7346 8.81586 24.7346 4.39227 20.3113ZM20.3798 21.6553C20.6293 21.4429 20.8725 21.219 21.1083 20.9834C21.2709 20.8206 21.4277 20.6543 21.5793 20.4849L23.9704 22.8767L22.7858 24.061L20.3798 21.6553Z" fill="#575757"/>
<path d="M13.6416 15.356C13.9041 15.356 14.1167 15.1431 14.1167 14.8806V14.261C14.1167 13.9985 13.9041 13.7859 13.6416 13.7859C13.3792 13.7859 13.1665 13.9985 13.1665 14.261V14.8806C13.1665 15.1431 13.3792 15.356 13.6416 15.356Z" fill="#575757"/>
<path d="M10.9442 14.8806V14.261C10.9442 13.9985 10.7315 13.7859 10.4691 13.7859C10.2066 13.7859 9.99371 13.9985 9.99371 14.261V14.8806C9.99371 15.1431 10.2066 15.356 10.4691 15.356C10.7315 15.356 10.9442 15.1431 10.9442 14.8806Z" fill="#575757"/>
<path d="M13.4854 17.134C13.671 16.9485 13.671 16.6477 13.4854 16.4621C13.2999 16.2764 12.9988 16.2766 12.8133 16.4621C12.6109 16.6645 12.3416 16.7761 12.0552 16.7761C11.7689 16.7761 11.4998 16.6645 11.2972 16.4621C11.1116 16.2766 10.8109 16.2766 10.6253 16.4621C10.4398 16.6477 10.4398 16.9485 10.6253 17.134C11.0071 17.5161 11.5152 17.7265 12.0552 17.7265C12.5955 17.7265 13.1033 17.5161 13.4854 17.134Z" fill="#575757"/>
<path d="M19.2678 5.43605C17.4372 3.60524 15.0032 2.59718 12.4143 2.59718C9.82567 2.59718 7.39158 3.60524 5.56102 5.43605C4.71214 6.28468 4.03709 7.26662 3.55418 8.35475C3.44774 8.5945 3.55589 8.87526 3.79564 8.9817C4.03538 9.08815 4.31639 8.98024 4.42283 8.74025C4.85814 7.75954 5.46727 6.87404 6.23289 6.10817C7.88426 4.45705 10.0793 3.54762 12.4143 3.54762C14.7493 3.54762 16.9446 4.45705 18.5957 6.10817C20.2468 7.75929 21.156 9.95436 21.156 12.2896C21.156 14.6245 20.2468 16.8196 18.5957 18.4707C17.3122 19.7542 15.7002 20.5891 13.9492 20.8975V19.7813C15.4341 19.1616 16.5539 17.8367 16.8872 16.2271C17.7097 16.0679 18.3291 15.3938 18.3291 14.5884C18.3291 13.8172 17.7605 13.166 16.9897 12.9729V11.6458C17.4768 11.2522 17.8462 10.7686 18.093 10.197C18.9682 8.17116 17.9595 5.80153 17.9162 5.70168C17.8518 5.55348 17.7168 5.44826 17.5574 5.42189C17.3979 5.39577 17.2361 5.45241 17.1279 5.57228C16.196 6.60255 14.5552 6.43434 12.8179 6.25636C12.3804 6.21144 11.9277 6.16505 11.4822 6.13795C10.1492 6.0569 8.93187 6.75783 8.33446 7.91212C7.85277 7.86745 7.37108 7.99733 6.96727 8.28883C6.44603 8.66481 6.14036 9.24855 6.12791 9.8904C6.10496 11.0974 6.57347 12.3403 6.89378 13.0447C6.24095 13.2986 5.78123 13.895 5.78123 14.5886C5.78123 15.3936 6.40037 16.0676 7.22239 16.2268C7.41453 17.1631 7.87474 18.0235 8.5659 18.7146C9.02952 19.1782 9.56956 19.5381 10.1572 19.783V20.7381C8.68626 20.3477 7.33763 19.5757 6.23289 18.4707C4.15599 16.3938 3.2639 13.4326 3.84642 10.5493C3.89842 10.2923 3.73216 10.0415 3.47484 9.98952C3.21776 9.93776 2.96702 10.104 2.91502 10.3611C2.26903 13.5574 3.25828 16.8401 5.56102 19.1428C7.39158 20.9734 9.82542 21.9815 12.4143 21.9815C15.0032 21.9815 17.4372 20.9734 19.2678 19.1428C21.0984 17.3123 22.1064 14.8782 22.1064 12.2896C22.1064 9.70045 21.0984 7.26662 19.2678 5.43605ZM17.3789 14.5884C17.3789 14.8406 17.2239 15.0628 16.9897 15.1924V13.9844C17.2239 14.114 17.3789 14.3362 17.3789 14.5884ZM7.07835 9.90846C7.08494 9.56813 7.24705 9.2588 7.52342 9.05934C7.71043 8.92433 7.92894 8.85451 8.15135 8.85451C8.25902 8.85451 8.36766 8.87086 8.4741 8.90407C8.71507 8.97902 8.97239 8.85255 9.06053 8.61598C9.42479 7.63722 10.3747 7.02272 11.4245 7.08644C11.8503 7.11256 12.293 7.15773 12.7212 7.20168C14.3474 7.36842 16.0215 7.53981 17.2563 6.70998C17.4656 7.45656 17.6909 8.73586 17.219 9.82423C16.8794 10.6077 16.2163 11.1817 15.2483 11.5303C12.477 12.5286 9.8054 11.0349 9.77952 11.02C9.64744 10.9441 9.48704 10.9361 9.34788 10.9986C9.20897 11.0611 9.10838 11.1863 9.07737 11.3355C9.07445 11.3499 8.791 12.6607 7.86863 12.8826C7.60301 12.3391 7.05589 11.0742 7.07835 9.90846ZM6.73167 14.5884C6.73167 14.3364 6.8867 14.114 7.12059 13.9844V15.1924C6.8867 15.0628 6.73167 14.8406 6.73167 14.5884ZM8.07103 15.2249V13.8142C9.07127 13.595 9.58787 12.7041 9.82811 12.1006C10.8296 12.5403 13.1279 13.3045 15.5705 12.4243C15.7336 12.3655 15.8896 12.301 16.0395 12.2312V15.2249C16.0395 17.4219 14.2522 19.2095 12.0552 19.2095C10.9909 19.2095 9.99046 18.7949 9.23802 18.0425C8.48558 17.2898 8.07103 16.2893 8.07103 15.2249ZM11.1076 20.9346V20.0689C11.4165 20.1287 11.7336 20.1597 12.0554 20.1597C12.3779 20.1597 12.6933 20.1277 12.9988 20.0681V21.0115C12.8052 21.0242 12.6103 21.031 12.4145 21.031C11.9729 21.031 11.5364 20.9986 11.1076 20.9346Z" fill="#575757"/>
</g>
<defs>
<clipPath id="clip0">
<rect width="32" height="32" fill="white"/>
</clipPath>
</defs>
</svg>
