<svg width="32" height="32" viewBox="0 0 32 32" fill="none" xmlns="http://www.w3.org/2000/svg">
<g clip-path="url(#clip0)">
<path d="M28.4213 14.2351C28.178 14.0578 27.8685 13.987 27.5723 14.0408L22.2438 15.0078C21.6816 15.1098 21.2854 15.6341 21.3417 16.2014C21.3621 16.4052 21.3734 16.6132 21.3755 16.8197C21.3845 17.7118 21.2226 18.5831 20.8942 19.4093C20.7986 19.6499 20.9162 19.9224 21.1567 20.018C21.3976 20.1139 21.6699 19.9961 21.7655 19.7555C22.139 18.8156 22.3232 17.8247 22.313 16.8102C22.3106 16.5761 22.2978 16.3401 22.2748 16.1087C22.2663 16.024 22.3263 15.9457 22.4113 15.9302L27.7397 14.9632C27.8015 14.9518 27.8475 14.977 27.8694 14.993C27.8908 15.0085 27.9278 15.0437 27.9358 15.104C28.0133 15.6872 28.0531 16.2814 28.054 16.8697C28.0595 20.4662 26.6474 23.8662 24.0779 26.4434C21.5084 29.0207 18.1128 30.4431 14.5163 30.4485C14.5095 30.4485 14.5033 30.4485 14.4965 30.4485C9.8589 30.4485 5.58384 27.9895 3.11981 24.2152L8.00913 21.257C8.30626 21.6964 8.64995 22.1091 9.03839 22.4878C10.4927 23.9132 12.5114 24.7373 14.577 24.7075C16.9185 24.6836 19.1098 23.6137 20.5892 21.7723C20.7513 21.5705 20.7192 21.2754 20.5174 21.1133C20.3155 20.9512 20.0205 20.9834 19.8584 21.1851C18.5555 22.8068 16.6271 23.749 14.5675 23.77C10.7942 23.8068 7.67844 20.7738 7.61662 17.0053C7.5865 15.1697 8.28013 13.4279 9.56971 12.101C10.8581 10.7753 12.5773 10.0329 14.4107 10.0107C15.0775 10.0028 15.7387 10.0898 16.3744 10.27C16.9216 10.4251 17.5061 10.1263 17.7052 9.58983L19.5891 4.51389C19.6939 4.23164 19.6782 3.91463 19.5462 3.644C19.4147 3.37425 19.1755 3.16743 18.89 3.07656C17.4671 2.62393 15.9889 2.39449 14.4959 2.39449C14.4886 2.39449 14.4812 2.39449 14.4738 2.39449C10.627 2.4003 6.99599 3.92051 4.2497 6.67511C1.50335 9.42971 -0.00585689 13.0653 -4.43076e-05 16.9121C0.000455699 17.2779 0.0151434 17.6478 0.0435188 18.0116C0.0636441 18.2696 0.28921 18.4624 0.547338 18.4425C0.805404 18.4223 0.998344 18.1968 0.978219 17.9386C0.951719 17.5986 0.937969 17.2528 0.937531 16.9107C0.932094 13.3143 2.34418 9.91434 4.91365 7.33705C5.09921 7.15093 5.28959 6.97155 5.48359 6.79755L9.01839 11.3261C8.97777 11.3662 8.93733 11.4065 8.89739 11.4476C7.43274 12.9547 6.64498 14.9339 6.67923 17.0207C6.69911 18.2333 6.99393 19.4 7.53187 20.45L2.63505 23.4128C2.04892 22.3631 1.59717 21.2266 1.30804 20.0239C1.24747 19.7721 0.994469 19.6169 0.742716 19.6777C0.491025 19.7382 0.336023 19.9913 0.396524 20.243C1.14453 23.3542 2.94875 26.1821 5.47691 28.2055C8.03994 30.257 11.2422 31.3859 14.4965 31.3859H14.5178C18.3646 31.3801 21.9956 29.8599 24.7419 27.1053C27.4881 24.3507 28.9974 20.7151 28.9916 16.8682C28.9906 16.2392 28.9481 15.604 28.8653 14.9803C28.8257 14.6835 28.6638 14.4118 28.4213 14.2351ZM8.93733 4.53339L9.41371 5.66209C9.48921 5.8411 9.66296 5.94872 9.84578 5.94872C9.90653 5.94872 9.96834 5.93685 10.0278 5.91172C10.2663 5.81109 10.3781 5.53609 10.2775 5.29759L9.8039 4.17551C11.2827 3.62419 12.8586 3.3345 14.4753 3.33206C15.8799 3.33194 17.2683 3.5445 18.6057 3.97001C18.6638 3.98851 18.692 4.0312 18.7035 4.05495C18.7154 4.07926 18.732 4.12882 18.7101 4.18776L16.8262 9.2637C16.7961 9.34489 16.7099 9.39077 16.6299 9.36802C15.9074 9.16327 15.1566 9.06401 14.3992 9.0732C13.5849 9.08308 12.7908 9.21833 12.0378 9.46858L11.1268 7.31005C11.0262 7.07161 10.7512 6.95986 10.5127 7.06049C10.2742 7.16111 10.1624 7.43612 10.2631 7.67462L11.1677 9.81796C10.659 10.0592 10.1754 10.3566 9.72453 10.7072L6.20217 6.1946C7.0533 5.52909 7.97082 4.97315 8.93733 4.53339Z" fill="#575757"/>
<path d="M31.9724 10.7593C31.4654 8.55013 30.4293 6.46304 28.9759 4.7237C28.5394 4.20126 28.0614 3.70531 27.5554 3.24975C27.3631 3.07656 27.0667 3.09212 26.8934 3.2845C26.7202 3.47687 26.7357 3.77325 26.9282 3.94651C27.4014 4.37251 27.8483 4.83627 28.2565 5.3249C29.6156 6.95142 30.5845 8.90314 31.0586 10.9691C31.0722 11.0285 31.0499 11.0743 31.0354 11.0963C31.0207 11.1185 30.9869 11.1575 30.9258 11.1685L25.6127 12.1249C25.5273 12.1405 25.4457 12.0877 25.4233 12.0024C24.8333 9.7614 23.2874 7.91143 21.1823 6.92692C21.102 6.88942 21.0644 6.79973 21.0947 6.71842L22.9803 1.65941C23.002 1.60129 23.0463 1.57497 23.0709 1.56447C23.0951 1.55403 23.1441 1.54016 23.2002 1.56422C23.9124 1.86891 24.6028 2.23748 25.2522 2.6598C25.4691 2.80086 25.7596 2.73936 25.9007 2.52236C26.0418 2.30536 25.9803 2.01498 25.7633 1.87385C25.0688 1.42222 24.3305 1.02809 23.569 0.702273C23.2935 0.584397 22.9774 0.584584 22.7015 0.702773C22.4254 0.82115 22.2067 1.05047 22.1019 1.33197L20.2163 6.39098C20.0171 6.92542 20.267 7.53387 20.7851 7.77618C22.6376 8.64251 23.9977 10.2699 24.5167 12.2411C24.6456 12.7309 25.0949 13.0648 25.5863 13.0648C25.6499 13.0648 25.7143 13.0592 25.7788 13.0476L31.092 12.0912C31.3877 12.038 31.6522 11.8636 31.8179 11.6129C31.983 11.3624 32.0394 11.0514 31.9724 10.7593Z" fill="#575757"/>
</g>
<defs>
<clipPath id="clip0">
<rect width="32" height="32" fill="white"/>
</clipPath>
</defs>
</svg>
