<svg width="32" height="32" viewBox="0 0 32 32" fill="none" xmlns="http://www.w3.org/2000/svg">
<g clip-path="url(#clip0)">
<path d="M24.2722 5.65649H23.022C18.761 5.65649 15.2942 9.12329 15.2942 13.3843V23.6582C15.2942 24.2505 15.7761 24.7322 16.3684 24.7322H19.2588V24.9417C19.2588 24.9487 19.2593 24.9558 19.2595 24.9631C19.2593 24.9668 19.2588 24.9702 19.2588 24.9739C19.2588 24.9849 19.2598 24.9958 19.2605 25.0066C19.2954 26.6104 20.6099 27.9043 22.2217 27.9043H25.0254C26.6375 27.9043 27.9519 26.6104 27.9866 25.0066C27.9875 24.9958 27.9883 24.9849 27.9883 24.9739C27.9883 24.9702 27.9878 24.9668 27.9878 24.9631C27.9878 24.9558 27.9883 24.9487 27.9883 24.9417V24.7322H30.926C31.5181 24.7322 32 24.2505 32 23.6582V13.3843C32 9.12329 28.5334 5.65649 24.2722 5.65649ZM23.022 6.59229H24.2722C28.0173 6.59229 31.0645 9.63916 31.0645 13.3843V15.6318C30.8872 14.9905 30.4761 14.5044 29.9568 14.335C28.8367 11.8445 26.3557 10.2375 23.6235 10.2375C20.8914 10.2375 18.4104 11.8445 17.2903 14.335C16.8123 14.491 16.4265 14.9155 16.2297 15.4819V13.3843C16.2297 9.63916 19.2769 6.59229 23.022 6.59229ZM27.0527 24.5061H20.1943V23.8325H25.4163C25.6748 23.8325 25.8843 23.6233 25.8843 23.3647C25.8843 23.1064 25.6748 22.897 25.4163 22.897H20.1943V21.7695C20.9028 22.1184 21.6965 22.313 22.5271 22.313H24.72C25.5505 22.313 26.3442 22.1184 27.0527 21.7695V24.5061ZM24.7202 21.3774H22.5271C20.4487 21.3774 18.6504 19.8994 18.251 17.863C18.2041 17.6245 17.9824 17.4614 17.7407 17.488C17.7241 17.49 17.7109 17.4907 17.7007 17.4907C17.3804 17.4907 17.0234 17.0215 17.0234 16.3481C17.0234 15.6746 17.3804 15.2053 17.7007 15.2053C17.9592 15.2053 18.1685 14.9958 18.1685 14.7375C18.1685 14.7163 18.1665 14.6956 18.1638 14.675C19.1426 12.5452 21.2756 11.1731 23.6235 11.1731C25.9714 11.1731 28.1047 12.5452 29.0833 14.675C29.0803 14.6956 29.0786 14.7163 29.0786 14.7375C29.0786 14.9958 29.2881 15.2053 29.5464 15.2053C29.8667 15.2053 30.2236 15.6746 30.2236 16.3481C30.2236 17.0215 29.8667 17.4907 29.5464 17.4907C29.5361 17.4907 29.5232 17.49 29.5066 17.488C29.2644 17.4612 29.043 17.6245 28.9961 17.863C28.5967 19.8994 26.7983 21.3774 24.7202 21.3774ZM16.3682 23.7966C16.292 23.7966 16.23 23.7344 16.23 23.6582V17.2144C16.4434 17.8291 16.8796 18.2764 17.4146 18.395C17.717 19.5227 18.3787 20.4888 19.2588 21.1799V23.7966H16.3682ZM25.0254 26.9688H22.2217C21.2764 26.9688 20.4805 26.3184 20.2571 25.4417H26.9902C26.7668 26.3186 25.9707 26.9688 25.0254 26.9688ZM30.926 23.7966H27.9883V21.1799C28.8684 20.4888 29.53 19.5227 29.8325 18.395C30.4104 18.2668 30.8733 17.7554 31.0642 17.0637V23.6582C31.0645 23.7346 31.0022 23.7966 30.926 23.7966Z" fill="#575757"/>
<path d="M13.9263 14.3823V6.3396C13.9263 6.31421 13.9243 6.28931 13.9204 6.26514C13.8362 5.09595 12.864 4.1875 11.6853 4.1875C11.1763 4.1875 10.6926 4.35742 10.302 4.66504C9.91138 4.35742 9.42798 4.1875 8.91895 4.1875C8.40991 4.1875 7.92627 4.35742 7.53564 4.66504C7.14502 4.35742 6.66162 4.1875 6.15259 4.1875C5.64355 4.1875 5.15991 4.35742 4.76929 4.66504C4.37866 4.35742 3.89526 4.1875 3.38623 4.1875C2.20752 4.1875 1.2356 5.0957 1.15112 6.2644C1.14722 6.28882 1.14502 6.31396 1.14502 6.3396V14.355C0.475586 14.6077 0 15.3931 0 16.3479C0 17.3872 0.563232 18.2258 1.32666 18.395C1.62915 19.5227 2.29077 20.4888 3.1709 21.1799V22.4944C2.85327 22.75 2.66821 23.1309 2.66821 23.5493V25.8645C2.66821 26.3557 2.92236 26.7957 3.34766 27.0413C3.56055 27.1641 3.7937 27.2256 4.0271 27.2256C4.09424 27.2256 4.16138 27.22 4.22803 27.2097C4.76099 27.6592 5.42847 27.9045 6.13379 27.9045H8.31763C8.57617 27.9045 8.7854 27.6951 8.7854 27.4368C8.7854 27.1782 8.57617 26.969 8.31763 26.969H6.13379C5.80859 26.969 5.49536 26.8923 5.21387 26.7485L6.41724 26.0537C6.72192 26.3037 7.11157 26.4541 7.53564 26.4541C7.95972 26.4541 8.34937 26.3037 8.6543 26.0537L10.3647 27.0413C10.5774 27.1641 10.8108 27.2256 11.0442 27.2256C11.2776 27.2256 11.511 27.1641 11.7236 27.0413C12.1489 26.7957 12.4031 26.3557 12.4031 25.8645V23.5493C12.4031 23.1309 12.218 22.75 11.9004 22.4944V21.1799C12.7852 20.4851 13.4492 19.5125 13.7495 18.3774C14.4768 18.1736 15.0059 17.355 15.0059 16.3479C15.0059 15.4292 14.5642 14.6616 13.9263 14.3823ZM3.604 25.8645V23.5493C3.604 23.3289 3.75195 23.2195 3.81567 23.1829C3.87915 23.146 4.04785 23.0725 4.23877 23.1829L5.86328 24.1206C5.80273 24.2988 5.76929 24.4893 5.76929 24.6877C5.76929 24.8979 5.8064 25.0999 5.87402 25.2869L4.23877 26.231C4.04785 26.3413 3.87915 26.2676 3.81567 26.231C3.75195 26.1943 3.604 26.085 3.604 25.8645ZM7.53564 25.5186C7.07764 25.5186 6.70508 25.1458 6.70508 24.6877C6.70508 24.2295 7.07764 23.8569 7.53564 23.8569C7.9939 23.8569 8.36646 24.2297 8.36646 24.6877C8.36646 25.1458 7.9939 25.5186 7.53564 25.5186ZM11.4675 25.8645C11.4675 26.085 11.3193 26.1943 11.2559 26.231C11.1921 26.2678 11.0237 26.3413 10.8325 26.231L9.19727 25.2869C9.26514 25.0996 9.30225 24.8979 9.30225 24.6877C9.30225 24.4893 9.2688 24.2986 9.20825 24.1206L10.8325 23.1829C11.0237 23.0725 11.1921 23.146 11.2559 23.1829C11.3193 23.2195 11.4675 23.3289 11.4675 23.5493V25.8645ZM10.9648 22.1909C10.7583 22.2031 10.5535 22.2637 10.3647 22.3726L8.68115 23.3445C8.37256 23.0811 7.97266 22.9211 7.53564 22.9211C7.09888 22.9211 6.69897 23.0811 6.39038 23.3445L4.70679 22.3726C4.51807 22.2637 4.31323 22.2031 4.10645 22.1909V21.7695C4.81494 22.1184 5.60864 22.313 6.43921 22.313H8.63208C9.46265 22.313 10.2561 22.1184 10.9648 21.7695V22.1909ZM13.3977 17.4907L13.3811 17.49C13.1536 17.4834 12.9519 17.6426 12.9075 17.8672C12.5066 19.9011 10.7085 21.3774 8.63208 21.3774H6.43921C4.36084 21.3774 2.5625 19.8994 2.16309 17.863C2.11621 17.6245 1.89453 17.4619 1.65283 17.488C1.63623 17.49 1.62305 17.491 1.61279 17.491C1.29248 17.491 0.935547 17.0215 0.935547 16.3481C0.935547 15.6748 1.29248 15.2053 1.61279 15.2053C1.87134 15.2053 2.08057 14.9958 2.08057 14.7375V13.1616C2.44629 12.4841 2.95996 11.8806 3.57275 11.4114C3.77808 11.2544 3.81689 10.9607 3.65991 10.7556C3.50269 10.5505 3.20923 10.5115 3.00415 10.6685C2.66919 10.925 2.35938 11.2156 2.08057 11.5334V6.3855C2.08154 6.37793 2.08203 6.37036 2.08228 6.36255C2.1167 5.66772 2.68945 5.12305 3.38623 5.12305C3.78369 5.12305 4.15503 5.30151 4.40454 5.6123C4.49341 5.7229 4.62744 5.78735 4.76929 5.78735C4.91113 5.78735 5.04541 5.7229 5.13428 5.6123C5.38379 5.30151 5.75488 5.12305 6.15259 5.12305C6.55005 5.12305 6.92139 5.30151 7.1709 5.6123C7.25977 5.7229 7.39404 5.78735 7.53564 5.78735C7.67749 5.78735 7.81177 5.7229 7.90063 5.6123C8.15015 5.30151 8.52148 5.12305 8.91895 5.12305C9.31641 5.12305 9.68774 5.30151 9.93726 5.6123C10.0261 5.7229 10.1602 5.78735 10.3022 5.78735C10.4441 5.78735 10.5781 5.7229 10.667 5.6123C10.9165 5.30151 11.2878 5.12305 11.6853 5.12305C12.3821 5.12305 12.9546 5.66748 12.989 6.36255C12.9895 6.37036 12.99 6.37793 12.9907 6.38525V11.5283C11.7944 10.1611 10.0593 9.35522 8.18604 9.35522H6.88574C6.2749 9.35522 5.67041 9.44116 5.08936 9.61108C4.84155 9.68359 4.69922 9.94336 4.77173 10.1914C4.84424 10.4395 5.104 10.5815 5.35205 10.5093C5.84766 10.3643 6.36377 10.2908 6.88574 10.2908H8.18604C10.2053 10.2908 12.0359 11.3884 12.9907 13.1624V14.7402C12.9907 14.9841 13.1782 15.1873 13.4216 15.2065C13.7349 15.2314 14.0703 15.696 14.0703 16.3479C14.0703 17.0181 13.7168 17.4861 13.3977 17.4907Z" fill="#575757"/>
<path d="M6.03223 15.0945C6.03223 15.6201 5.6062 16.0461 5.08057 16.0461C4.55518 16.0461 4.12915 15.6201 4.12915 15.0945C4.12915 14.5691 4.55518 14.1431 5.08057 14.1431C5.6062 14.1431 6.03223 14.5691 6.03223 15.0945Z" fill="#575757"/>
<path d="M10.9421 15.0945C10.9421 15.6201 10.5164 16.0461 9.99072 16.0461C9.46533 16.0461 9.03931 15.6201 9.03931 15.0945C9.03931 14.5691 9.46533 14.1431 9.99072 14.1431C10.5164 14.1431 10.9421 14.5691 10.9421 15.0945Z" fill="#575757"/>
<path d="M9.47411 16.9507H5.5974C5.40404 16.9507 5.21898 17.0332 5.08983 17.1772C4.96044 17.3215 4.89842 17.5144 4.91942 17.707C5.06542 19.043 6.19017 20.0505 7.53563 20.0505C8.88134 20.0505 10.0061 19.043 10.1521 17.707C10.1731 17.5146 10.1111 17.3215 9.98168 17.1775C9.85253 17.0332 9.66747 16.9507 9.47411 16.9507ZM7.53563 19.1147C6.76561 19.1147 6.1079 18.6033 5.90429 17.8862H9.16699C8.96337 18.6033 8.30566 19.1147 7.53563 19.1147Z" fill="#575757"/>
<path d="M22.1201 15.0945C22.1201 15.6201 21.6941 16.0461 21.1685 16.0461C20.6431 16.0461 20.217 15.6201 20.217 15.0945C20.217 14.5691 20.6431 14.1431 21.1685 14.1431C21.6941 14.1431 22.1201 14.5691 22.1201 15.0945Z" fill="#575757"/>
<path d="M27.03 15.0945C27.03 15.6201 26.604 16.0461 26.0786 16.0461C25.5532 16.0461 25.1272 15.6201 25.1272 15.0945C25.1272 14.5691 25.5532 14.1431 26.0786 14.1431C26.604 14.1431 27.03 14.5691 27.03 15.0945Z" fill="#575757"/>
<path d="M25.5854 16.9507H21.7087C21.5154 16.9507 21.3303 17.0332 21.2012 17.1775C21.0718 17.3215 21.0098 17.5146 21.0307 17.707C21.1767 19.043 22.3015 20.0503 23.647 20.0503C24.9927 20.0503 26.1174 19.043 26.2634 17.707C26.2844 17.5146 26.2224 17.3215 26.093 17.1775C25.9639 17.0332 25.7788 16.9507 25.5854 16.9507ZM23.6472 19.1147C22.8772 19.1147 22.2195 18.6033 22.0159 17.8862H25.2786C25.0749 18.6033 24.4172 19.1147 23.6472 19.1147Z" fill="#575757"/>
</g>
<defs>
<clipPath id="clip0">
<rect width="32" height="32" fill="white"/>
</clipPath>
</defs>
</svg>
