<svg width="16" height="16" viewBox="0 0 16 16" fill="none" xmlns="http://www.w3.org/2000/svg">
<path d="M13.25 2H10.5V1.5C10.5 0.671562 9.82844 0 9 0H7C6.17156 0 5.5 0.671562 5.5 1.5V2H2.75C2.05966 2 1.5 2.55966 1.5 3.25V4.25C1.5 4.52616 1.72384 4.75 2 4.75H14C14.2762 4.75 14.5 4.52616 14.5 4.25V3.25C14.5 2.55966 13.9403 2 13.25 2ZM6.5 1.5C6.5 1.22438 6.72437 1 7 1H9C9.27563 1 9.5 1.22438 9.5 1.5V2H6.5V1.5Z" fill="white"/>
<path d="M2.44872 5.75C2.35951 5.75 2.28841 5.82456 2.29266 5.91369L2.70516 14.5712C2.74329 15.3725 3.40141 16 4.20329 16H11.7964C12.5983 16 13.2564 15.3725 13.2945 14.5712L13.707 5.91369C13.7113 5.82456 13.6402 5.75 13.551 5.75H2.44872ZM9.99985 7C9.99985 6.72375 10.2236 6.5 10.4998 6.5C10.7761 6.5 10.9998 6.72375 10.9998 7V13.5C10.9998 13.7762 10.7761 14 10.4998 14C10.2236 14 9.99985 13.7762 9.99985 13.5V7ZM7.49985 7C7.49985 6.72375 7.7236 6.5 7.99985 6.5C8.2761 6.5 8.49985 6.72375 8.49985 7V13.5C8.49985 13.7762 8.2761 14 7.99985 14C7.7236 14 7.49985 13.7762 7.49985 13.5V7ZM4.99985 7C4.99985 6.72375 5.2236 6.5 5.49985 6.5C5.7761 6.5 5.99985 6.72375 5.99985 7V13.5C5.99985 13.7762 5.7761 14 5.49985 14C5.2236 14 4.99985 13.7762 4.99985 13.5V7Z" fill="white"/>
</svg>
